%TF.GenerationSoftware,KiCad,Pcbnew,(5.1.6-0-10_14)*%
%TF.CreationDate,2021-02-05T00:28:22-08:00*%
%TF.ProjectId,version1,76657273-696f-46e3-912e-6b696361645f,rev?*%
%TF.SameCoordinates,Original*%
%TF.FileFunction,Legend,Top*%
%TF.FilePolarity,Positive*%
%FSLAX46Y46*%
G04 Gerber Fmt 4.6, Leading zero omitted, Abs format (unit mm)*
G04 Created by KiCad (PCBNEW (5.1.6-0-10_14)) date 2021-02-05 00:28:22*
%MOMM*%
%LPD*%
G01*
G04 APERTURE LIST*
%ADD10C,0.187500*%
%ADD11C,0.150000*%
%ADD12C,0.300000*%
%ADD13C,0.100000*%
%ADD14C,0.120000*%
%ADD15C,0.125000*%
G04 APERTURE END LIST*
D10*
X121259961Y-79459201D02*
X121638768Y-79838008D01*
X121689276Y-79939023D01*
X121689276Y-80040038D01*
X121638768Y-80141054D01*
X121588260Y-80191561D01*
X122295367Y-79484454D02*
X122042829Y-79736993D01*
X121512499Y-79206662D01*
X122724682Y-78954124D02*
X122724682Y-79004632D01*
X122674174Y-79105647D01*
X122623667Y-79156155D01*
X122522651Y-79206662D01*
X122421636Y-79206662D01*
X122345875Y-79181409D01*
X122219606Y-79105647D01*
X122143844Y-79029886D01*
X122068083Y-78903617D01*
X122042829Y-78827855D01*
X122042829Y-78726840D01*
X122093337Y-78625825D01*
X122143844Y-78575317D01*
X122244859Y-78524809D01*
X122295367Y-78524809D01*
X122623667Y-78095495D02*
X123002474Y-78474302D01*
X123052981Y-78575317D01*
X123052981Y-78676332D01*
X123002474Y-78777348D01*
X122951966Y-78827855D01*
X123659073Y-78120748D02*
X123406535Y-78373287D01*
X122876205Y-77842956D01*
X124088388Y-77590418D02*
X124088388Y-77640926D01*
X124037880Y-77741941D01*
X123987373Y-77792449D01*
X123886357Y-77842956D01*
X123785342Y-77842956D01*
X123709581Y-77817703D01*
X123583312Y-77741941D01*
X123507550Y-77666180D01*
X123431789Y-77539911D01*
X123406535Y-77464149D01*
X123406535Y-77363134D01*
X123457043Y-77262119D01*
X123507550Y-77211611D01*
X123608565Y-77161104D01*
X123659073Y-77161104D01*
X123987373Y-76731789D02*
X124366180Y-77110596D01*
X124416687Y-77211611D01*
X124416687Y-77312626D01*
X124366180Y-77413642D01*
X124315672Y-77464149D01*
X125022779Y-76757043D02*
X124770241Y-77009581D01*
X124239911Y-76479251D01*
X125452094Y-76226712D02*
X125452094Y-76277220D01*
X125401586Y-76378235D01*
X125351079Y-76428743D01*
X125250063Y-76479251D01*
X125149048Y-76479251D01*
X125073287Y-76453997D01*
X124947018Y-76378235D01*
X124871256Y-76302474D01*
X124795495Y-76176205D01*
X124770241Y-76100443D01*
X124770241Y-75999428D01*
X124820748Y-75898413D01*
X124871256Y-75847905D01*
X124972271Y-75797398D01*
X125022779Y-75797398D01*
X125351079Y-75368083D02*
X125729886Y-75746890D01*
X125780393Y-75847905D01*
X125780393Y-75948920D01*
X125729886Y-76049936D01*
X125679378Y-76100443D01*
X126386485Y-75393337D02*
X126133947Y-75645875D01*
X125603617Y-75115545D01*
X126815800Y-74863006D02*
X126815800Y-74913514D01*
X126765292Y-75014529D01*
X126714784Y-75065037D01*
X126613769Y-75115545D01*
X126512754Y-75115545D01*
X126436993Y-75090291D01*
X126310723Y-75014529D01*
X126234962Y-74938768D01*
X126159201Y-74812499D01*
X126133947Y-74736737D01*
X126133947Y-74635722D01*
X126184454Y-74534707D01*
X126234962Y-74484199D01*
X126335977Y-74433692D01*
X126386485Y-74433692D01*
D11*
X140000000Y-69700000D02*
X140500000Y-70100000D01*
X140000000Y-69700000D02*
X140000000Y-70500000D01*
X140600000Y-69600000D02*
X140600000Y-70600000D01*
X140500000Y-70100000D02*
X140000000Y-70500000D01*
X139600000Y-70100000D02*
X140600000Y-70100000D01*
X107800000Y-62600000D02*
X107300000Y-62200000D01*
X107800000Y-62600000D02*
X107800000Y-61800000D01*
X107200000Y-62700000D02*
X107200000Y-61700000D01*
X107300000Y-62200000D02*
X107800000Y-61800000D01*
X108200000Y-62200000D02*
X107200000Y-62200000D01*
X127600000Y-100000000D02*
X128100000Y-100400000D01*
X127600000Y-100000000D02*
X127600000Y-100800000D01*
X128200000Y-99900000D02*
X128200000Y-100900000D01*
X128100000Y-100400000D02*
X127600000Y-100800000D01*
X127200000Y-100400000D02*
X128200000Y-100400000D01*
X121900000Y-98200000D02*
X122400000Y-98600000D01*
X121900000Y-98200000D02*
X121900000Y-99000000D01*
X122500000Y-98100000D02*
X122500000Y-99100000D01*
X122400000Y-98600000D02*
X121900000Y-99000000D01*
X121500000Y-98600000D02*
X122500000Y-98600000D01*
X121500000Y-95800000D02*
X122500000Y-95800000D01*
X122500000Y-95300000D02*
X122500000Y-96300000D01*
X122400000Y-95800000D02*
X121900000Y-96200000D01*
X121900000Y-95400000D02*
X122400000Y-95800000D01*
X121900000Y-95400000D02*
X121900000Y-96200000D01*
X127941421Y-65400000D02*
G75*
G03*
X127941421Y-65400000I-141421J0D01*
G01*
X134941421Y-98200000D02*
G75*
G03*
X134941421Y-98200000I-141421J0D01*
G01*
X129341421Y-63100000D02*
G75*
G03*
X129341421Y-63100000I-141421J0D01*
G01*
X109841421Y-66400000D02*
G75*
G03*
X109841421Y-66400000I-141421J0D01*
G01*
X103541421Y-76600000D02*
G75*
G03*
X103541421Y-76600000I-141421J0D01*
G01*
X103541421Y-70100000D02*
G75*
G03*
X103541421Y-70100000I-141421J0D01*
G01*
X128841421Y-70900000D02*
G75*
G03*
X128841421Y-70900000I-141421J0D01*
G01*
D12*
X125428571Y-104107142D02*
X126571428Y-104107142D01*
X138428571Y-104107142D02*
X139571428Y-104107142D01*
X139000000Y-104678571D02*
X139000000Y-103535714D01*
X128535714Y-52857142D02*
X128750000Y-52928571D01*
X129107142Y-52928571D01*
X129250000Y-52857142D01*
X129321428Y-52785714D01*
X129392857Y-52642857D01*
X129392857Y-52500000D01*
X129321428Y-52357142D01*
X129250000Y-52285714D01*
X129107142Y-52214285D01*
X128821428Y-52142857D01*
X128678571Y-52071428D01*
X128607142Y-52000000D01*
X128535714Y-51857142D01*
X128535714Y-51714285D01*
X128607142Y-51571428D01*
X128678571Y-51500000D01*
X128821428Y-51428571D01*
X129178571Y-51428571D01*
X129392857Y-51500000D01*
X129821428Y-51428571D02*
X130678571Y-51428571D01*
X130250000Y-52928571D02*
X130250000Y-51428571D01*
X131107142Y-52500000D02*
X131821428Y-52500000D01*
X130964285Y-52928571D02*
X131464285Y-51428571D01*
X131964285Y-52928571D01*
X133321428Y-52928571D02*
X132821428Y-52214285D01*
X132464285Y-52928571D02*
X132464285Y-51428571D01*
X133035714Y-51428571D01*
X133178571Y-51500000D01*
X133250000Y-51571428D01*
X133321428Y-51714285D01*
X133321428Y-51928571D01*
X133250000Y-52071428D01*
X133178571Y-52142857D01*
X133035714Y-52214285D01*
X132464285Y-52214285D01*
X133750000Y-51428571D02*
X134607142Y-51428571D01*
X134178571Y-52928571D02*
X134178571Y-51428571D01*
X114571428Y-52928571D02*
X114071428Y-52214285D01*
X113714285Y-52928571D02*
X113714285Y-51428571D01*
X114285714Y-51428571D01*
X114428571Y-51500000D01*
X114500000Y-51571428D01*
X114571428Y-51714285D01*
X114571428Y-51928571D01*
X114500000Y-52071428D01*
X114428571Y-52142857D01*
X114285714Y-52214285D01*
X113714285Y-52214285D01*
X115214285Y-52142857D02*
X115714285Y-52142857D01*
X115928571Y-52928571D02*
X115214285Y-52928571D01*
X115214285Y-51428571D01*
X115928571Y-51428571D01*
X116500000Y-52857142D02*
X116714285Y-52928571D01*
X117071428Y-52928571D01*
X117214285Y-52857142D01*
X117285714Y-52785714D01*
X117357142Y-52642857D01*
X117357142Y-52500000D01*
X117285714Y-52357142D01*
X117214285Y-52285714D01*
X117071428Y-52214285D01*
X116785714Y-52142857D01*
X116642857Y-52071428D01*
X116571428Y-52000000D01*
X116500000Y-51857142D01*
X116500000Y-51714285D01*
X116571428Y-51571428D01*
X116642857Y-51500000D01*
X116785714Y-51428571D01*
X117142857Y-51428571D01*
X117357142Y-51500000D01*
X118000000Y-52142857D02*
X118500000Y-52142857D01*
X118714285Y-52928571D02*
X118000000Y-52928571D01*
X118000000Y-51428571D01*
X118714285Y-51428571D01*
X119142857Y-51428571D02*
X120000000Y-51428571D01*
X119571428Y-52928571D02*
X119571428Y-51428571D01*
D13*
X141325476Y-66826190D02*
X141635000Y-66826190D01*
X141468333Y-67016666D01*
X141539761Y-67016666D01*
X141587380Y-67040476D01*
X141611190Y-67064285D01*
X141635000Y-67111904D01*
X141635000Y-67230952D01*
X141611190Y-67278571D01*
X141587380Y-67302380D01*
X141539761Y-67326190D01*
X141396904Y-67326190D01*
X141349285Y-67302380D01*
X141325476Y-67278571D01*
X141777857Y-66826190D02*
X141944523Y-67326190D01*
X142111190Y-66826190D01*
X142230238Y-66826190D02*
X142539761Y-66826190D01*
X142373095Y-67016666D01*
X142444523Y-67016666D01*
X142492142Y-67040476D01*
X142515952Y-67064285D01*
X142539761Y-67111904D01*
X142539761Y-67230952D01*
X142515952Y-67278571D01*
X142492142Y-67302380D01*
X142444523Y-67326190D01*
X142301666Y-67326190D01*
X142254047Y-67302380D01*
X142230238Y-67278571D01*
X140420714Y-64802380D02*
X140492142Y-64826190D01*
X140611190Y-64826190D01*
X140658809Y-64802380D01*
X140682619Y-64778571D01*
X140706428Y-64730952D01*
X140706428Y-64683333D01*
X140682619Y-64635714D01*
X140658809Y-64611904D01*
X140611190Y-64588095D01*
X140515952Y-64564285D01*
X140468333Y-64540476D01*
X140444523Y-64516666D01*
X140420714Y-64469047D01*
X140420714Y-64421428D01*
X140444523Y-64373809D01*
X140468333Y-64350000D01*
X140515952Y-64326190D01*
X140635000Y-64326190D01*
X140706428Y-64350000D01*
X140873095Y-64326190D02*
X140992142Y-64826190D01*
X141087380Y-64469047D01*
X141182619Y-64826190D01*
X141301666Y-64326190D01*
X141492142Y-64826190D02*
X141492142Y-64326190D01*
X141611190Y-64326190D01*
X141682619Y-64350000D01*
X141730238Y-64397619D01*
X141754047Y-64445238D01*
X141777857Y-64540476D01*
X141777857Y-64611904D01*
X141754047Y-64707142D01*
X141730238Y-64754761D01*
X141682619Y-64802380D01*
X141611190Y-64826190D01*
X141492142Y-64826190D01*
X141992142Y-64826190D02*
X141992142Y-64326190D01*
X142325476Y-64326190D02*
X142420714Y-64326190D01*
X142468333Y-64350000D01*
X142515952Y-64397619D01*
X142539761Y-64492857D01*
X142539761Y-64659523D01*
X142515952Y-64754761D01*
X142468333Y-64802380D01*
X142420714Y-64826190D01*
X142325476Y-64826190D01*
X142277857Y-64802380D01*
X142230238Y-64754761D01*
X142206428Y-64659523D01*
X142206428Y-64492857D01*
X142230238Y-64397619D01*
X142277857Y-64350000D01*
X142325476Y-64326190D01*
X140277857Y-62302380D02*
X140349285Y-62326190D01*
X140468333Y-62326190D01*
X140515952Y-62302380D01*
X140539761Y-62278571D01*
X140563571Y-62230952D01*
X140563571Y-62183333D01*
X140539761Y-62135714D01*
X140515952Y-62111904D01*
X140468333Y-62088095D01*
X140373095Y-62064285D01*
X140325476Y-62040476D01*
X140301666Y-62016666D01*
X140277857Y-61969047D01*
X140277857Y-61921428D01*
X140301666Y-61873809D01*
X140325476Y-61850000D01*
X140373095Y-61826190D01*
X140492142Y-61826190D01*
X140563571Y-61850000D01*
X140730238Y-61826190D02*
X140849285Y-62326190D01*
X140944523Y-61969047D01*
X141039761Y-62326190D01*
X141158809Y-61826190D01*
X141635000Y-62278571D02*
X141611190Y-62302380D01*
X141539761Y-62326190D01*
X141492142Y-62326190D01*
X141420714Y-62302380D01*
X141373095Y-62254761D01*
X141349285Y-62207142D01*
X141325476Y-62111904D01*
X141325476Y-62040476D01*
X141349285Y-61945238D01*
X141373095Y-61897619D01*
X141420714Y-61850000D01*
X141492142Y-61826190D01*
X141539761Y-61826190D01*
X141611190Y-61850000D01*
X141635000Y-61873809D01*
X142087380Y-62326190D02*
X141849285Y-62326190D01*
X141849285Y-61826190D01*
X142254047Y-62326190D02*
X142254047Y-61826190D01*
X142539761Y-62326190D02*
X142325476Y-62040476D01*
X142539761Y-61826190D02*
X142254047Y-62111904D01*
X141492142Y-59350000D02*
X141444523Y-59326190D01*
X141373095Y-59326190D01*
X141301666Y-59350000D01*
X141254047Y-59397619D01*
X141230238Y-59445238D01*
X141206428Y-59540476D01*
X141206428Y-59611904D01*
X141230238Y-59707142D01*
X141254047Y-59754761D01*
X141301666Y-59802380D01*
X141373095Y-59826190D01*
X141420714Y-59826190D01*
X141492142Y-59802380D01*
X141515952Y-59778571D01*
X141515952Y-59611904D01*
X141420714Y-59611904D01*
X141730238Y-59826190D02*
X141730238Y-59326190D01*
X142015952Y-59826190D01*
X142015952Y-59326190D01*
X142254047Y-59826190D02*
X142254047Y-59326190D01*
X142373095Y-59326190D01*
X142444523Y-59350000D01*
X142492142Y-59397619D01*
X142515952Y-59445238D01*
X142539761Y-59540476D01*
X142539761Y-59611904D01*
X142515952Y-59707142D01*
X142492142Y-59754761D01*
X142444523Y-59802380D01*
X142373095Y-59826190D01*
X142254047Y-59826190D01*
D14*
%TO.C,U7*%
X106600000Y-67110000D02*
X109050000Y-67110000D01*
X108400000Y-63890000D02*
X106600000Y-63890000D01*
%TO.C,U4*%
X131850000Y-98860000D02*
X134300000Y-98860000D01*
X133650000Y-95640000D02*
X131850000Y-95640000D01*
%TO.C,R22*%
X121990000Y-68849721D02*
X121990000Y-69175279D01*
X123010000Y-68849721D02*
X123010000Y-69175279D01*
%TO.C,R21*%
X115762779Y-72290000D02*
X115437221Y-72290000D01*
X115762779Y-73310000D02*
X115437221Y-73310000D01*
%TO.C,R20*%
X115762779Y-70590000D02*
X115437221Y-70590000D01*
X115762779Y-71610000D02*
X115437221Y-71610000D01*
%TO.C,R19*%
X115437221Y-76710000D02*
X115762779Y-76710000D01*
X115437221Y-75690000D02*
X115762779Y-75690000D01*
%TO.C,R18*%
X115762779Y-77290000D02*
X115437221Y-77290000D01*
X115762779Y-78310000D02*
X115437221Y-78310000D01*
%TO.C,R17*%
X113490000Y-65337221D02*
X113490000Y-65662779D01*
X114510000Y-65337221D02*
X114510000Y-65662779D01*
%TO.C,R16*%
X112760000Y-65662779D02*
X112760000Y-65337221D01*
X111740000Y-65662779D02*
X111740000Y-65337221D01*
%TO.C,R15*%
X140240000Y-57087221D02*
X140240000Y-57412779D01*
X141260000Y-57087221D02*
X141260000Y-57412779D01*
%TO.C,R13*%
X137760000Y-57412779D02*
X137760000Y-57087221D01*
X136740000Y-57412779D02*
X136740000Y-57087221D01*
%TO.C,R11*%
X133575279Y-70090000D02*
X133249721Y-70090000D01*
X133575279Y-71110000D02*
X133249721Y-71110000D01*
%TO.C,R10*%
X133237221Y-69410000D02*
X133562779Y-69410000D01*
X133237221Y-68390000D02*
X133562779Y-68390000D01*
%TO.C,R9*%
X125910000Y-109162779D02*
X125910000Y-108837221D01*
X124890000Y-109162779D02*
X124890000Y-108837221D01*
%TO.C,R8*%
X144162779Y-81390000D02*
X143837221Y-81390000D01*
X144162779Y-82410000D02*
X143837221Y-82410000D01*
%TO.C,R7*%
X144162779Y-78890000D02*
X143837221Y-78890000D01*
X144162779Y-79910000D02*
X143837221Y-79910000D01*
%TO.C,R6*%
X144162779Y-76390000D02*
X143837221Y-76390000D01*
X144162779Y-77410000D02*
X143837221Y-77410000D01*
%TO.C,R5*%
X144162779Y-73890000D02*
X143837221Y-73890000D01*
X144162779Y-74910000D02*
X143837221Y-74910000D01*
%TO.C,R4*%
X144162779Y-71390000D02*
X143837221Y-71390000D01*
X144162779Y-72410000D02*
X143837221Y-72410000D01*
%TO.C,R3*%
X138740000Y-97087221D02*
X138740000Y-97412779D01*
X139760000Y-97087221D02*
X139760000Y-97412779D01*
%TO.C,R2*%
X138010000Y-97412779D02*
X138010000Y-97087221D01*
X136990000Y-97412779D02*
X136990000Y-97087221D01*
%TO.C,R1*%
X111260000Y-57412779D02*
X111260000Y-57087221D01*
X110240000Y-57412779D02*
X110240000Y-57087221D01*
%TO.C,Q1*%
X144260000Y-96580000D02*
X142800000Y-96580000D01*
X144260000Y-93420000D02*
X142100000Y-93420000D01*
X144260000Y-93420000D02*
X144260000Y-94350000D01*
X144260000Y-96580000D02*
X144260000Y-95650000D01*
%TO.C,L3*%
X104960000Y-65758578D02*
X104960000Y-65241422D01*
X103540000Y-65758578D02*
X103540000Y-65241422D01*
%TO.C,L2*%
X130210000Y-97508578D02*
X130210000Y-96991422D01*
X128790000Y-97508578D02*
X128790000Y-96991422D01*
%TO.C,D10*%
X105050000Y-63200000D02*
X109350000Y-63200000D01*
X105050000Y-61200000D02*
X105050000Y-63200000D01*
X109350000Y-61200000D02*
X105050000Y-61200000D01*
%TO.C,D9*%
X124360000Y-110685000D02*
X124360000Y-108000000D01*
X122440000Y-110685000D02*
X124360000Y-110685000D01*
X122440000Y-108000000D02*
X122440000Y-110685000D01*
%TO.C,D8*%
X141885000Y-80940000D02*
X139200000Y-80940000D01*
X141885000Y-82860000D02*
X141885000Y-80940000D01*
X139200000Y-82860000D02*
X141885000Y-82860000D01*
%TO.C,D7*%
X141885000Y-78440000D02*
X139200000Y-78440000D01*
X141885000Y-80360000D02*
X141885000Y-78440000D01*
X139200000Y-80360000D02*
X141885000Y-80360000D01*
%TO.C,D6*%
X141885000Y-75940000D02*
X139200000Y-75940000D01*
X141885000Y-77860000D02*
X141885000Y-75940000D01*
X139200000Y-77860000D02*
X141885000Y-77860000D01*
%TO.C,D5*%
X141885000Y-73440000D02*
X139200000Y-73440000D01*
X141885000Y-75360000D02*
X141885000Y-73440000D01*
X139200000Y-75360000D02*
X141885000Y-75360000D01*
%TO.C,D4*%
X141885000Y-70940000D02*
X139200000Y-70940000D01*
X141885000Y-72860000D02*
X141885000Y-70940000D01*
X139200000Y-72860000D02*
X141885000Y-72860000D01*
%TO.C,D3*%
X130350000Y-99400000D02*
X126050000Y-99400000D01*
X130350000Y-101400000D02*
X130350000Y-99400000D01*
X126050000Y-101400000D02*
X130350000Y-101400000D01*
%TO.C,C24*%
X103637221Y-68710000D02*
X103962779Y-68710000D01*
X103637221Y-67690000D02*
X103962779Y-67690000D01*
%TO.C,C23*%
X125240000Y-97087221D02*
X125240000Y-97412779D01*
X126260000Y-97087221D02*
X126260000Y-97412779D01*
%TO.C,C22*%
X101740000Y-65337221D02*
X101740000Y-65662779D01*
X102760000Y-65337221D02*
X102760000Y-65662779D01*
%TO.C,C21*%
X107662779Y-67740000D02*
X107337221Y-67740000D01*
X107662779Y-68760000D02*
X107337221Y-68760000D01*
%TO.C,C20*%
X109990000Y-65337221D02*
X109990000Y-65662779D01*
X111010000Y-65337221D02*
X111010000Y-65662779D01*
%TO.C,C19*%
X135240000Y-97087221D02*
X135240000Y-97412779D01*
X136260000Y-97087221D02*
X136260000Y-97412779D01*
%TO.C,C18*%
X139510000Y-57412779D02*
X139510000Y-57087221D01*
X138490000Y-57412779D02*
X138490000Y-57087221D01*
%TO.C,C16*%
X126990000Y-97087221D02*
X126990000Y-97412779D01*
X128010000Y-97087221D02*
X128010000Y-97412779D01*
%TO.C,C15*%
X132912779Y-99490000D02*
X132587221Y-99490000D01*
X132912779Y-100510000D02*
X132587221Y-100510000D01*
%TO.C,C14*%
X120262779Y-67590000D02*
X119937221Y-67590000D01*
X120262779Y-68610000D02*
X119937221Y-68610000D01*
%TO.C,C13*%
X127125279Y-69290000D02*
X126799721Y-69290000D01*
X127125279Y-70310000D02*
X126799721Y-70310000D01*
%TO.C,C12*%
X127240000Y-85437221D02*
X127240000Y-85762779D01*
X128260000Y-85437221D02*
X128260000Y-85762779D01*
%TO.C,C11*%
X124910000Y-63962779D02*
X124910000Y-63637221D01*
X123890000Y-63962779D02*
X123890000Y-63637221D01*
%TO.C,C10*%
X120262779Y-69190000D02*
X119937221Y-69190000D01*
X120262779Y-70210000D02*
X119937221Y-70210000D01*
%TO.C,C9*%
X115762779Y-74040000D02*
X115437221Y-74040000D01*
X115762779Y-75060000D02*
X115437221Y-75060000D01*
%TO.C,C8*%
X132137221Y-74110000D02*
X132462779Y-74110000D01*
X132137221Y-73090000D02*
X132462779Y-73090000D01*
%TO.C,C7*%
X127110000Y-63962779D02*
X127110000Y-63637221D01*
X126090000Y-63962779D02*
X126090000Y-63637221D01*
%TO.C,C6*%
X115762779Y-80540000D02*
X115437221Y-80540000D01*
X115762779Y-81560000D02*
X115437221Y-81560000D01*
%TO.C,C5*%
X128890000Y-85437221D02*
X128890000Y-85762779D01*
X129910000Y-85437221D02*
X129910000Y-85762779D01*
%TO.C,C4*%
X111790000Y-73337221D02*
X111790000Y-73662779D01*
X112810000Y-73337221D02*
X112810000Y-73662779D01*
%TO.C,C3*%
X111790000Y-79824721D02*
X111790000Y-80150279D01*
X112810000Y-79824721D02*
X112810000Y-80150279D01*
%TO.C,C2*%
X130590000Y-85437221D02*
X130590000Y-85762779D01*
X131610000Y-85437221D02*
X131610000Y-85762779D01*
%TO.C,C1*%
X115762779Y-78890000D02*
X115437221Y-78890000D01*
X115762779Y-79910000D02*
X115437221Y-79910000D01*
%TO.C,Y1*%
X127500000Y-65700000D02*
X123500000Y-65700000D01*
X127500000Y-68900000D02*
X127500000Y-65700000D01*
%TO.C,U6*%
X116000000Y-100200000D02*
X116000000Y-98600000D01*
X114200000Y-98600000D02*
X114200000Y-100500000D01*
%TO.C,U5*%
X133300000Y-62440000D02*
X129850000Y-62440000D01*
X133300000Y-62440000D02*
X135250000Y-62440000D01*
X133300000Y-67560000D02*
X131350000Y-67560000D01*
X133300000Y-67560000D02*
X135250000Y-67560000D01*
%TO.C,U3*%
X107500000Y-69440000D02*
X104050000Y-69440000D01*
X107500000Y-69440000D02*
X109450000Y-69440000D01*
X107500000Y-74560000D02*
X105550000Y-74560000D01*
X107500000Y-74560000D02*
X109450000Y-74560000D01*
%TO.C,U2*%
X128160000Y-72190000D02*
X128160000Y-70850000D01*
X129110000Y-72190000D02*
X128160000Y-72190000D01*
X129110000Y-73140000D02*
X129110000Y-72190000D01*
X129110000Y-82410000D02*
X128160000Y-82410000D01*
X129110000Y-81460000D02*
X129110000Y-82410000D01*
X118890000Y-72190000D02*
X119840000Y-72190000D01*
X118890000Y-73140000D02*
X118890000Y-72190000D01*
X118890000Y-82410000D02*
X119840000Y-82410000D01*
X118890000Y-81460000D02*
X118890000Y-82410000D01*
%TO.C,U1*%
X107500000Y-75940000D02*
X104050000Y-75940000D01*
X107500000Y-75940000D02*
X109450000Y-75940000D01*
X107500000Y-81060000D02*
X105550000Y-81060000D01*
X107500000Y-81060000D02*
X109450000Y-81060000D01*
%TO.C,SW3*%
X134750000Y-58000000D02*
X134750000Y-56500000D01*
X133500000Y-54000000D02*
X129000000Y-54000000D01*
X127750000Y-56500000D02*
X127750000Y-58000000D01*
X129000000Y-60500000D02*
X133500000Y-60500000D01*
%TO.C,SW1*%
X120250000Y-58000000D02*
X120250000Y-56500000D01*
X119000000Y-54000000D02*
X114500000Y-54000000D01*
X113250000Y-56500000D02*
X113250000Y-58000000D01*
X114500000Y-60500000D02*
X119000000Y-60500000D01*
%TO.C,J3*%
X127200000Y-111300000D02*
X129200000Y-111300000D01*
X127200000Y-109060000D02*
X127200000Y-111300000D01*
X133820000Y-107976000D02*
X133726000Y-108069000D01*
X136070000Y-105725000D02*
X136011000Y-105784000D01*
X133990000Y-108216000D02*
X133931000Y-108274000D01*
X136275000Y-105931000D02*
X136181000Y-106024000D01*
X137560000Y-102940000D02*
X137560000Y-111060000D01*
X127440000Y-102940000D02*
X127440000Y-111060000D01*
X127440000Y-111060000D02*
X137560000Y-111060000D01*
X127440000Y-102940000D02*
X137560000Y-102940000D01*
X127440000Y-105000000D02*
X137560000Y-105000000D01*
X127440000Y-109000000D02*
X137560000Y-109000000D01*
X136680000Y-107000000D02*
G75*
G03*
X136680000Y-107000000I-1680000J0D01*
G01*
X130029383Y-108680450D02*
G75*
G02*
X129211000Y-108484000I-29383J1680450D01*
G01*
X128516047Y-107789088D02*
G75*
G02*
X128516000Y-106211000I1483953J789088D01*
G01*
X129210912Y-105516047D02*
G75*
G02*
X130789000Y-105516000I789088J-1483953D01*
G01*
X131483953Y-106210912D02*
G75*
G02*
X131484000Y-107789000I-1483953J-789088D01*
G01*
X130788712Y-108483352D02*
G75*
G02*
X130000000Y-108680000I-788712J1483352D01*
G01*
%TO.C,D2*%
X124450000Y-96800000D02*
X120550000Y-96800000D01*
X124450000Y-94800000D02*
X120550000Y-94800000D01*
X124450000Y-96800000D02*
X124450000Y-94800000D01*
%TO.C,D1*%
X124450000Y-99600000D02*
X120550000Y-99600000D01*
X124450000Y-97600000D02*
X120550000Y-97600000D01*
X124450000Y-99600000D02*
X124450000Y-97600000D01*
%TO.C,JP3*%
X108200000Y-91000000D02*
X106800000Y-91000000D01*
X106100000Y-90300000D02*
X106100000Y-89700000D01*
X106800000Y-89000000D02*
X108200000Y-89000000D01*
X108900000Y-89700000D02*
X108900000Y-90300000D01*
X108900000Y-90300000D02*
G75*
G02*
X108200000Y-91000000I-700000J0D01*
G01*
X108200000Y-89000000D02*
G75*
G02*
X108900000Y-89700000I0J-700000D01*
G01*
X106100000Y-89700000D02*
G75*
G02*
X106800000Y-89000000I700000J0D01*
G01*
X106800000Y-91000000D02*
G75*
G02*
X106100000Y-90300000I0J700000D01*
G01*
%TO.C,JP2*%
X108200000Y-86000000D02*
X106800000Y-86000000D01*
X106100000Y-85300000D02*
X106100000Y-84700000D01*
X106800000Y-84000000D02*
X108200000Y-84000000D01*
X108900000Y-84700000D02*
X108900000Y-85300000D01*
X108900000Y-85300000D02*
G75*
G02*
X108200000Y-86000000I-700000J0D01*
G01*
X108200000Y-84000000D02*
G75*
G02*
X108900000Y-84700000I0J-700000D01*
G01*
X106100000Y-84700000D02*
G75*
G02*
X106800000Y-84000000I700000J0D01*
G01*
X106800000Y-86000000D02*
G75*
G02*
X106100000Y-85300000I0J700000D01*
G01*
%TO.C,J1*%
X119460000Y-112510000D02*
X119460000Y-110850000D01*
X111540000Y-112510000D02*
X119460000Y-112510000D01*
X111540000Y-110850000D02*
X111540000Y-112510000D01*
X117550000Y-103040000D02*
X118700000Y-103040000D01*
X113450000Y-102450000D02*
X114150000Y-102450000D01*
X113450000Y-103040000D02*
X113450000Y-102450000D01*
X112300000Y-103040000D02*
X113450000Y-103040000D01*
X119460000Y-105350000D02*
X119460000Y-107950000D01*
X111540000Y-107950000D02*
X111540000Y-105350000D01*
%TO.C,J4*%
X144500000Y-58070000D02*
X145830000Y-58070000D01*
X145830000Y-58070000D02*
X145830000Y-59400000D01*
X145830000Y-60670000D02*
X145830000Y-68350000D01*
X143170000Y-68350000D02*
X145830000Y-68350000D01*
X143170000Y-60670000D02*
X143170000Y-68350000D01*
X143170000Y-60670000D02*
X145830000Y-60670000D01*
%TO.C,U7*%
D15*
X107119047Y-65726190D02*
X107119047Y-66130952D01*
X107142857Y-66178571D01*
X107166666Y-66202380D01*
X107214285Y-66226190D01*
X107309523Y-66226190D01*
X107357142Y-66202380D01*
X107380952Y-66178571D01*
X107404761Y-66130952D01*
X107404761Y-65726190D01*
X107595238Y-65726190D02*
X107928571Y-65726190D01*
X107714285Y-66226190D01*
%TO.C,U4*%
X132369047Y-94726190D02*
X132369047Y-95130952D01*
X132392857Y-95178571D01*
X132416666Y-95202380D01*
X132464285Y-95226190D01*
X132559523Y-95226190D01*
X132607142Y-95202380D01*
X132630952Y-95178571D01*
X132654761Y-95130952D01*
X132654761Y-94726190D01*
X133107142Y-94892857D02*
X133107142Y-95226190D01*
X132988095Y-94702380D02*
X132869047Y-95059523D01*
X133178571Y-95059523D01*
%TO.C,R22*%
X122178571Y-67326190D02*
X122011904Y-67088095D01*
X121892857Y-67326190D02*
X121892857Y-66826190D01*
X122083333Y-66826190D01*
X122130952Y-66850000D01*
X122154761Y-66873809D01*
X122178571Y-66921428D01*
X122178571Y-66992857D01*
X122154761Y-67040476D01*
X122130952Y-67064285D01*
X122083333Y-67088095D01*
X121892857Y-67088095D01*
X122369047Y-66873809D02*
X122392857Y-66850000D01*
X122440476Y-66826190D01*
X122559523Y-66826190D01*
X122607142Y-66850000D01*
X122630952Y-66873809D01*
X122654761Y-66921428D01*
X122654761Y-66969047D01*
X122630952Y-67040476D01*
X122345238Y-67326190D01*
X122654761Y-67326190D01*
X122845238Y-66873809D02*
X122869047Y-66850000D01*
X122916666Y-66826190D01*
X123035714Y-66826190D01*
X123083333Y-66850000D01*
X123107142Y-66873809D01*
X123130952Y-66921428D01*
X123130952Y-66969047D01*
X123107142Y-67040476D01*
X122821428Y-67326190D01*
X123130952Y-67326190D01*
%TO.C,R21*%
X113926190Y-73121428D02*
X113688095Y-73288095D01*
X113926190Y-73407142D02*
X113426190Y-73407142D01*
X113426190Y-73216666D01*
X113450000Y-73169047D01*
X113473809Y-73145238D01*
X113521428Y-73121428D01*
X113592857Y-73121428D01*
X113640476Y-73145238D01*
X113664285Y-73169047D01*
X113688095Y-73216666D01*
X113688095Y-73407142D01*
X113473809Y-72930952D02*
X113450000Y-72907142D01*
X113426190Y-72859523D01*
X113426190Y-72740476D01*
X113450000Y-72692857D01*
X113473809Y-72669047D01*
X113521428Y-72645238D01*
X113569047Y-72645238D01*
X113640476Y-72669047D01*
X113926190Y-72954761D01*
X113926190Y-72645238D01*
X113926190Y-72169047D02*
X113926190Y-72454761D01*
X113926190Y-72311904D02*
X113426190Y-72311904D01*
X113497619Y-72359523D01*
X113545238Y-72407142D01*
X113569047Y-72454761D01*
%TO.C,R20*%
X113926190Y-71421428D02*
X113688095Y-71588095D01*
X113926190Y-71707142D02*
X113426190Y-71707142D01*
X113426190Y-71516666D01*
X113450000Y-71469047D01*
X113473809Y-71445238D01*
X113521428Y-71421428D01*
X113592857Y-71421428D01*
X113640476Y-71445238D01*
X113664285Y-71469047D01*
X113688095Y-71516666D01*
X113688095Y-71707142D01*
X113473809Y-71230952D02*
X113450000Y-71207142D01*
X113426190Y-71159523D01*
X113426190Y-71040476D01*
X113450000Y-70992857D01*
X113473809Y-70969047D01*
X113521428Y-70945238D01*
X113569047Y-70945238D01*
X113640476Y-70969047D01*
X113926190Y-71254761D01*
X113926190Y-70945238D01*
X113426190Y-70635714D02*
X113426190Y-70588095D01*
X113450000Y-70540476D01*
X113473809Y-70516666D01*
X113521428Y-70492857D01*
X113616666Y-70469047D01*
X113735714Y-70469047D01*
X113830952Y-70492857D01*
X113878571Y-70516666D01*
X113902380Y-70540476D01*
X113926190Y-70588095D01*
X113926190Y-70635714D01*
X113902380Y-70683333D01*
X113878571Y-70707142D01*
X113830952Y-70730952D01*
X113735714Y-70754761D01*
X113616666Y-70754761D01*
X113521428Y-70730952D01*
X113473809Y-70707142D01*
X113450000Y-70683333D01*
X113426190Y-70635714D01*
%TO.C,R19*%
X113926190Y-76521428D02*
X113688095Y-76688095D01*
X113926190Y-76807142D02*
X113426190Y-76807142D01*
X113426190Y-76616666D01*
X113450000Y-76569047D01*
X113473809Y-76545238D01*
X113521428Y-76521428D01*
X113592857Y-76521428D01*
X113640476Y-76545238D01*
X113664285Y-76569047D01*
X113688095Y-76616666D01*
X113688095Y-76807142D01*
X113926190Y-76045238D02*
X113926190Y-76330952D01*
X113926190Y-76188095D02*
X113426190Y-76188095D01*
X113497619Y-76235714D01*
X113545238Y-76283333D01*
X113569047Y-76330952D01*
X113926190Y-75807142D02*
X113926190Y-75711904D01*
X113902380Y-75664285D01*
X113878571Y-75640476D01*
X113807142Y-75592857D01*
X113711904Y-75569047D01*
X113521428Y-75569047D01*
X113473809Y-75592857D01*
X113450000Y-75616666D01*
X113426190Y-75664285D01*
X113426190Y-75759523D01*
X113450000Y-75807142D01*
X113473809Y-75830952D01*
X113521428Y-75854761D01*
X113640476Y-75854761D01*
X113688095Y-75830952D01*
X113711904Y-75807142D01*
X113735714Y-75759523D01*
X113735714Y-75664285D01*
X113711904Y-75616666D01*
X113688095Y-75592857D01*
X113640476Y-75569047D01*
%TO.C,R18*%
X113926190Y-78121428D02*
X113688095Y-78288095D01*
X113926190Y-78407142D02*
X113426190Y-78407142D01*
X113426190Y-78216666D01*
X113450000Y-78169047D01*
X113473809Y-78145238D01*
X113521428Y-78121428D01*
X113592857Y-78121428D01*
X113640476Y-78145238D01*
X113664285Y-78169047D01*
X113688095Y-78216666D01*
X113688095Y-78407142D01*
X113926190Y-77645238D02*
X113926190Y-77930952D01*
X113926190Y-77788095D02*
X113426190Y-77788095D01*
X113497619Y-77835714D01*
X113545238Y-77883333D01*
X113569047Y-77930952D01*
X113640476Y-77359523D02*
X113616666Y-77407142D01*
X113592857Y-77430952D01*
X113545238Y-77454761D01*
X113521428Y-77454761D01*
X113473809Y-77430952D01*
X113450000Y-77407142D01*
X113426190Y-77359523D01*
X113426190Y-77264285D01*
X113450000Y-77216666D01*
X113473809Y-77192857D01*
X113521428Y-77169047D01*
X113545238Y-77169047D01*
X113592857Y-77192857D01*
X113616666Y-77216666D01*
X113640476Y-77264285D01*
X113640476Y-77359523D01*
X113664285Y-77407142D01*
X113688095Y-77430952D01*
X113735714Y-77454761D01*
X113830952Y-77454761D01*
X113878571Y-77430952D01*
X113902380Y-77407142D01*
X113926190Y-77359523D01*
X113926190Y-77264285D01*
X113902380Y-77216666D01*
X113878571Y-77192857D01*
X113830952Y-77169047D01*
X113735714Y-77169047D01*
X113688095Y-77192857D01*
X113664285Y-77216666D01*
X113640476Y-77264285D01*
%TO.C,R17*%
X113678571Y-63826190D02*
X113511904Y-63588095D01*
X113392857Y-63826190D02*
X113392857Y-63326190D01*
X113583333Y-63326190D01*
X113630952Y-63350000D01*
X113654761Y-63373809D01*
X113678571Y-63421428D01*
X113678571Y-63492857D01*
X113654761Y-63540476D01*
X113630952Y-63564285D01*
X113583333Y-63588095D01*
X113392857Y-63588095D01*
X114154761Y-63826190D02*
X113869047Y-63826190D01*
X114011904Y-63826190D02*
X114011904Y-63326190D01*
X113964285Y-63397619D01*
X113916666Y-63445238D01*
X113869047Y-63469047D01*
X114321428Y-63326190D02*
X114654761Y-63326190D01*
X114440476Y-63826190D01*
%TO.C,R16*%
X111928571Y-63826190D02*
X111761904Y-63588095D01*
X111642857Y-63826190D02*
X111642857Y-63326190D01*
X111833333Y-63326190D01*
X111880952Y-63350000D01*
X111904761Y-63373809D01*
X111928571Y-63421428D01*
X111928571Y-63492857D01*
X111904761Y-63540476D01*
X111880952Y-63564285D01*
X111833333Y-63588095D01*
X111642857Y-63588095D01*
X112404761Y-63826190D02*
X112119047Y-63826190D01*
X112261904Y-63826190D02*
X112261904Y-63326190D01*
X112214285Y-63397619D01*
X112166666Y-63445238D01*
X112119047Y-63469047D01*
X112833333Y-63326190D02*
X112738095Y-63326190D01*
X112690476Y-63350000D01*
X112666666Y-63373809D01*
X112619047Y-63445238D01*
X112595238Y-63540476D01*
X112595238Y-63730952D01*
X112619047Y-63778571D01*
X112642857Y-63802380D01*
X112690476Y-63826190D01*
X112785714Y-63826190D01*
X112833333Y-63802380D01*
X112857142Y-63778571D01*
X112880952Y-63730952D01*
X112880952Y-63611904D01*
X112857142Y-63564285D01*
X112833333Y-63540476D01*
X112785714Y-63516666D01*
X112690476Y-63516666D01*
X112642857Y-63540476D01*
X112619047Y-63564285D01*
X112595238Y-63611904D01*
%TO.C,R15*%
X140428571Y-55526190D02*
X140261904Y-55288095D01*
X140142857Y-55526190D02*
X140142857Y-55026190D01*
X140333333Y-55026190D01*
X140380952Y-55050000D01*
X140404761Y-55073809D01*
X140428571Y-55121428D01*
X140428571Y-55192857D01*
X140404761Y-55240476D01*
X140380952Y-55264285D01*
X140333333Y-55288095D01*
X140142857Y-55288095D01*
X140904761Y-55526190D02*
X140619047Y-55526190D01*
X140761904Y-55526190D02*
X140761904Y-55026190D01*
X140714285Y-55097619D01*
X140666666Y-55145238D01*
X140619047Y-55169047D01*
X141357142Y-55026190D02*
X141119047Y-55026190D01*
X141095238Y-55264285D01*
X141119047Y-55240476D01*
X141166666Y-55216666D01*
X141285714Y-55216666D01*
X141333333Y-55240476D01*
X141357142Y-55264285D01*
X141380952Y-55311904D01*
X141380952Y-55430952D01*
X141357142Y-55478571D01*
X141333333Y-55502380D01*
X141285714Y-55526190D01*
X141166666Y-55526190D01*
X141119047Y-55502380D01*
X141095238Y-55478571D01*
%TO.C,R13*%
X136928571Y-55526190D02*
X136761904Y-55288095D01*
X136642857Y-55526190D02*
X136642857Y-55026190D01*
X136833333Y-55026190D01*
X136880952Y-55050000D01*
X136904761Y-55073809D01*
X136928571Y-55121428D01*
X136928571Y-55192857D01*
X136904761Y-55240476D01*
X136880952Y-55264285D01*
X136833333Y-55288095D01*
X136642857Y-55288095D01*
X137404761Y-55526190D02*
X137119047Y-55526190D01*
X137261904Y-55526190D02*
X137261904Y-55026190D01*
X137214285Y-55097619D01*
X137166666Y-55145238D01*
X137119047Y-55169047D01*
X137571428Y-55026190D02*
X137880952Y-55026190D01*
X137714285Y-55216666D01*
X137785714Y-55216666D01*
X137833333Y-55240476D01*
X137857142Y-55264285D01*
X137880952Y-55311904D01*
X137880952Y-55430952D01*
X137857142Y-55478571D01*
X137833333Y-55502380D01*
X137785714Y-55526190D01*
X137642857Y-55526190D01*
X137595238Y-55502380D01*
X137571428Y-55478571D01*
%TO.C,R11*%
X135626190Y-70921428D02*
X135388095Y-71088095D01*
X135626190Y-71207142D02*
X135126190Y-71207142D01*
X135126190Y-71016666D01*
X135150000Y-70969047D01*
X135173809Y-70945238D01*
X135221428Y-70921428D01*
X135292857Y-70921428D01*
X135340476Y-70945238D01*
X135364285Y-70969047D01*
X135388095Y-71016666D01*
X135388095Y-71207142D01*
X135626190Y-70445238D02*
X135626190Y-70730952D01*
X135626190Y-70588095D02*
X135126190Y-70588095D01*
X135197619Y-70635714D01*
X135245238Y-70683333D01*
X135269047Y-70730952D01*
X135626190Y-69969047D02*
X135626190Y-70254761D01*
X135626190Y-70111904D02*
X135126190Y-70111904D01*
X135197619Y-70159523D01*
X135245238Y-70207142D01*
X135269047Y-70254761D01*
%TO.C,R10*%
X135626190Y-69221428D02*
X135388095Y-69388095D01*
X135626190Y-69507142D02*
X135126190Y-69507142D01*
X135126190Y-69316666D01*
X135150000Y-69269047D01*
X135173809Y-69245238D01*
X135221428Y-69221428D01*
X135292857Y-69221428D01*
X135340476Y-69245238D01*
X135364285Y-69269047D01*
X135388095Y-69316666D01*
X135388095Y-69507142D01*
X135626190Y-68745238D02*
X135626190Y-69030952D01*
X135626190Y-68888095D02*
X135126190Y-68888095D01*
X135197619Y-68935714D01*
X135245238Y-68983333D01*
X135269047Y-69030952D01*
X135126190Y-68435714D02*
X135126190Y-68388095D01*
X135150000Y-68340476D01*
X135173809Y-68316666D01*
X135221428Y-68292857D01*
X135316666Y-68269047D01*
X135435714Y-68269047D01*
X135530952Y-68292857D01*
X135578571Y-68316666D01*
X135602380Y-68340476D01*
X135626190Y-68388095D01*
X135626190Y-68435714D01*
X135602380Y-68483333D01*
X135578571Y-68507142D01*
X135530952Y-68530952D01*
X135435714Y-68554761D01*
X135316666Y-68554761D01*
X135221428Y-68530952D01*
X135173809Y-68507142D01*
X135150000Y-68483333D01*
X135126190Y-68435714D01*
%TO.C,R9*%
X125316666Y-107326190D02*
X125150000Y-107088095D01*
X125030952Y-107326190D02*
X125030952Y-106826190D01*
X125221428Y-106826190D01*
X125269047Y-106850000D01*
X125292857Y-106873809D01*
X125316666Y-106921428D01*
X125316666Y-106992857D01*
X125292857Y-107040476D01*
X125269047Y-107064285D01*
X125221428Y-107088095D01*
X125030952Y-107088095D01*
X125554761Y-107326190D02*
X125650000Y-107326190D01*
X125697619Y-107302380D01*
X125721428Y-107278571D01*
X125769047Y-107207142D01*
X125792857Y-107111904D01*
X125792857Y-106921428D01*
X125769047Y-106873809D01*
X125745238Y-106850000D01*
X125697619Y-106826190D01*
X125602380Y-106826190D01*
X125554761Y-106850000D01*
X125530952Y-106873809D01*
X125507142Y-106921428D01*
X125507142Y-107040476D01*
X125530952Y-107088095D01*
X125554761Y-107111904D01*
X125602380Y-107135714D01*
X125697619Y-107135714D01*
X125745238Y-107111904D01*
X125769047Y-107088095D01*
X125792857Y-107040476D01*
%TO.C,R8*%
X146226190Y-82013333D02*
X145988095Y-82180000D01*
X146226190Y-82299047D02*
X145726190Y-82299047D01*
X145726190Y-82108571D01*
X145750000Y-82060952D01*
X145773809Y-82037142D01*
X145821428Y-82013333D01*
X145892857Y-82013333D01*
X145940476Y-82037142D01*
X145964285Y-82060952D01*
X145988095Y-82108571D01*
X145988095Y-82299047D01*
X145940476Y-81727619D02*
X145916666Y-81775238D01*
X145892857Y-81799047D01*
X145845238Y-81822857D01*
X145821428Y-81822857D01*
X145773809Y-81799047D01*
X145750000Y-81775238D01*
X145726190Y-81727619D01*
X145726190Y-81632380D01*
X145750000Y-81584761D01*
X145773809Y-81560952D01*
X145821428Y-81537142D01*
X145845238Y-81537142D01*
X145892857Y-81560952D01*
X145916666Y-81584761D01*
X145940476Y-81632380D01*
X145940476Y-81727619D01*
X145964285Y-81775238D01*
X145988095Y-81799047D01*
X146035714Y-81822857D01*
X146130952Y-81822857D01*
X146178571Y-81799047D01*
X146202380Y-81775238D01*
X146226190Y-81727619D01*
X146226190Y-81632380D01*
X146202380Y-81584761D01*
X146178571Y-81560952D01*
X146130952Y-81537142D01*
X146035714Y-81537142D01*
X145988095Y-81560952D01*
X145964285Y-81584761D01*
X145940476Y-81632380D01*
%TO.C,R7*%
X146326190Y-79483333D02*
X146088095Y-79650000D01*
X146326190Y-79769047D02*
X145826190Y-79769047D01*
X145826190Y-79578571D01*
X145850000Y-79530952D01*
X145873809Y-79507142D01*
X145921428Y-79483333D01*
X145992857Y-79483333D01*
X146040476Y-79507142D01*
X146064285Y-79530952D01*
X146088095Y-79578571D01*
X146088095Y-79769047D01*
X145826190Y-79316666D02*
X145826190Y-78983333D01*
X146326190Y-79197619D01*
%TO.C,R6*%
X146226190Y-77013333D02*
X145988095Y-77180000D01*
X146226190Y-77299047D02*
X145726190Y-77299047D01*
X145726190Y-77108571D01*
X145750000Y-77060952D01*
X145773809Y-77037142D01*
X145821428Y-77013333D01*
X145892857Y-77013333D01*
X145940476Y-77037142D01*
X145964285Y-77060952D01*
X145988095Y-77108571D01*
X145988095Y-77299047D01*
X145726190Y-76584761D02*
X145726190Y-76680000D01*
X145750000Y-76727619D01*
X145773809Y-76751428D01*
X145845238Y-76799047D01*
X145940476Y-76822857D01*
X146130952Y-76822857D01*
X146178571Y-76799047D01*
X146202380Y-76775238D01*
X146226190Y-76727619D01*
X146226190Y-76632380D01*
X146202380Y-76584761D01*
X146178571Y-76560952D01*
X146130952Y-76537142D01*
X146011904Y-76537142D01*
X145964285Y-76560952D01*
X145940476Y-76584761D01*
X145916666Y-76632380D01*
X145916666Y-76727619D01*
X145940476Y-76775238D01*
X145964285Y-76799047D01*
X146011904Y-76822857D01*
%TO.C,R5*%
X146226190Y-74483333D02*
X145988095Y-74650000D01*
X146226190Y-74769047D02*
X145726190Y-74769047D01*
X145726190Y-74578571D01*
X145750000Y-74530952D01*
X145773809Y-74507142D01*
X145821428Y-74483333D01*
X145892857Y-74483333D01*
X145940476Y-74507142D01*
X145964285Y-74530952D01*
X145988095Y-74578571D01*
X145988095Y-74769047D01*
X145726190Y-74030952D02*
X145726190Y-74269047D01*
X145964285Y-74292857D01*
X145940476Y-74269047D01*
X145916666Y-74221428D01*
X145916666Y-74102380D01*
X145940476Y-74054761D01*
X145964285Y-74030952D01*
X146011904Y-74007142D01*
X146130952Y-74007142D01*
X146178571Y-74030952D01*
X146202380Y-74054761D01*
X146226190Y-74102380D01*
X146226190Y-74221428D01*
X146202380Y-74269047D01*
X146178571Y-74292857D01*
%TO.C,R4*%
X146226190Y-72013333D02*
X145988095Y-72180000D01*
X146226190Y-72299047D02*
X145726190Y-72299047D01*
X145726190Y-72108571D01*
X145750000Y-72060952D01*
X145773809Y-72037142D01*
X145821428Y-72013333D01*
X145892857Y-72013333D01*
X145940476Y-72037142D01*
X145964285Y-72060952D01*
X145988095Y-72108571D01*
X145988095Y-72299047D01*
X145892857Y-71584761D02*
X146226190Y-71584761D01*
X145702380Y-71703809D02*
X146059523Y-71822857D01*
X146059523Y-71513333D01*
%TO.C,R3*%
X139166666Y-95526190D02*
X139000000Y-95288095D01*
X138880952Y-95526190D02*
X138880952Y-95026190D01*
X139071428Y-95026190D01*
X139119047Y-95050000D01*
X139142857Y-95073809D01*
X139166666Y-95121428D01*
X139166666Y-95192857D01*
X139142857Y-95240476D01*
X139119047Y-95264285D01*
X139071428Y-95288095D01*
X138880952Y-95288095D01*
X139333333Y-95026190D02*
X139642857Y-95026190D01*
X139476190Y-95216666D01*
X139547619Y-95216666D01*
X139595238Y-95240476D01*
X139619047Y-95264285D01*
X139642857Y-95311904D01*
X139642857Y-95430952D01*
X139619047Y-95478571D01*
X139595238Y-95502380D01*
X139547619Y-95526190D01*
X139404761Y-95526190D01*
X139357142Y-95502380D01*
X139333333Y-95478571D01*
%TO.C,R2*%
X137416666Y-95526190D02*
X137250000Y-95288095D01*
X137130952Y-95526190D02*
X137130952Y-95026190D01*
X137321428Y-95026190D01*
X137369047Y-95050000D01*
X137392857Y-95073809D01*
X137416666Y-95121428D01*
X137416666Y-95192857D01*
X137392857Y-95240476D01*
X137369047Y-95264285D01*
X137321428Y-95288095D01*
X137130952Y-95288095D01*
X137607142Y-95073809D02*
X137630952Y-95050000D01*
X137678571Y-95026190D01*
X137797619Y-95026190D01*
X137845238Y-95050000D01*
X137869047Y-95073809D01*
X137892857Y-95121428D01*
X137892857Y-95169047D01*
X137869047Y-95240476D01*
X137583333Y-95526190D01*
X137892857Y-95526190D01*
%TO.C,R1*%
X110616666Y-55526190D02*
X110450000Y-55288095D01*
X110330952Y-55526190D02*
X110330952Y-55026190D01*
X110521428Y-55026190D01*
X110569047Y-55050000D01*
X110592857Y-55073809D01*
X110616666Y-55121428D01*
X110616666Y-55192857D01*
X110592857Y-55240476D01*
X110569047Y-55264285D01*
X110521428Y-55288095D01*
X110330952Y-55288095D01*
X111092857Y-55526190D02*
X110807142Y-55526190D01*
X110950000Y-55526190D02*
X110950000Y-55026190D01*
X110902380Y-55097619D01*
X110854761Y-55145238D01*
X110807142Y-55169047D01*
%TO.C,Q1*%
X143452380Y-93073809D02*
X143404761Y-93050000D01*
X143357142Y-93002380D01*
X143285714Y-92930952D01*
X143238095Y-92907142D01*
X143190476Y-92907142D01*
X143214285Y-93026190D02*
X143166666Y-93002380D01*
X143119047Y-92954761D01*
X143095238Y-92859523D01*
X143095238Y-92692857D01*
X143119047Y-92597619D01*
X143166666Y-92550000D01*
X143214285Y-92526190D01*
X143309523Y-92526190D01*
X143357142Y-92550000D01*
X143404761Y-92597619D01*
X143428571Y-92692857D01*
X143428571Y-92859523D01*
X143404761Y-92954761D01*
X143357142Y-93002380D01*
X143309523Y-93026190D01*
X143214285Y-93026190D01*
X143904761Y-93026190D02*
X143619047Y-93026190D01*
X143761904Y-93026190D02*
X143761904Y-92526190D01*
X143714285Y-92597619D01*
X143666666Y-92645238D01*
X143619047Y-92669047D01*
%TO.C,L3*%
X104166666Y-63626190D02*
X103928571Y-63626190D01*
X103928571Y-63126190D01*
X104285714Y-63126190D02*
X104595238Y-63126190D01*
X104428571Y-63316666D01*
X104500000Y-63316666D01*
X104547619Y-63340476D01*
X104571428Y-63364285D01*
X104595238Y-63411904D01*
X104595238Y-63530952D01*
X104571428Y-63578571D01*
X104547619Y-63602380D01*
X104500000Y-63626190D01*
X104357142Y-63626190D01*
X104309523Y-63602380D01*
X104285714Y-63578571D01*
%TO.C,L2*%
X129416666Y-95326190D02*
X129178571Y-95326190D01*
X129178571Y-94826190D01*
X129559523Y-94873809D02*
X129583333Y-94850000D01*
X129630952Y-94826190D01*
X129750000Y-94826190D01*
X129797619Y-94850000D01*
X129821428Y-94873809D01*
X129845238Y-94921428D01*
X129845238Y-94969047D01*
X129821428Y-95040476D01*
X129535714Y-95326190D01*
X129845238Y-95326190D01*
%TO.C,D10*%
X106992857Y-60826190D02*
X106992857Y-60326190D01*
X107111904Y-60326190D01*
X107183333Y-60350000D01*
X107230952Y-60397619D01*
X107254761Y-60445238D01*
X107278571Y-60540476D01*
X107278571Y-60611904D01*
X107254761Y-60707142D01*
X107230952Y-60754761D01*
X107183333Y-60802380D01*
X107111904Y-60826190D01*
X106992857Y-60826190D01*
X107754761Y-60826190D02*
X107469047Y-60826190D01*
X107611904Y-60826190D02*
X107611904Y-60326190D01*
X107564285Y-60397619D01*
X107516666Y-60445238D01*
X107469047Y-60469047D01*
X108064285Y-60326190D02*
X108111904Y-60326190D01*
X108159523Y-60350000D01*
X108183333Y-60373809D01*
X108207142Y-60421428D01*
X108230952Y-60516666D01*
X108230952Y-60635714D01*
X108207142Y-60730952D01*
X108183333Y-60778571D01*
X108159523Y-60802380D01*
X108111904Y-60826190D01*
X108064285Y-60826190D01*
X108016666Y-60802380D01*
X107992857Y-60778571D01*
X107969047Y-60730952D01*
X107945238Y-60635714D01*
X107945238Y-60516666D01*
X107969047Y-60421428D01*
X107992857Y-60373809D01*
X108016666Y-60350000D01*
X108064285Y-60326190D01*
%TO.C,D9*%
X123030952Y-107126190D02*
X123030952Y-106626190D01*
X123150000Y-106626190D01*
X123221428Y-106650000D01*
X123269047Y-106697619D01*
X123292857Y-106745238D01*
X123316666Y-106840476D01*
X123316666Y-106911904D01*
X123292857Y-107007142D01*
X123269047Y-107054761D01*
X123221428Y-107102380D01*
X123150000Y-107126190D01*
X123030952Y-107126190D01*
X123554761Y-107126190D02*
X123650000Y-107126190D01*
X123697619Y-107102380D01*
X123721428Y-107078571D01*
X123769047Y-107007142D01*
X123792857Y-106911904D01*
X123792857Y-106721428D01*
X123769047Y-106673809D01*
X123745238Y-106650000D01*
X123697619Y-106626190D01*
X123602380Y-106626190D01*
X123554761Y-106650000D01*
X123530952Y-106673809D01*
X123507142Y-106721428D01*
X123507142Y-106840476D01*
X123530952Y-106888095D01*
X123554761Y-106911904D01*
X123602380Y-106935714D01*
X123697619Y-106935714D01*
X123745238Y-106911904D01*
X123769047Y-106888095D01*
X123792857Y-106840476D01*
%TO.C,D8*%
X138326190Y-82269047D02*
X137826190Y-82269047D01*
X137826190Y-82150000D01*
X137850000Y-82078571D01*
X137897619Y-82030952D01*
X137945238Y-82007142D01*
X138040476Y-81983333D01*
X138111904Y-81983333D01*
X138207142Y-82007142D01*
X138254761Y-82030952D01*
X138302380Y-82078571D01*
X138326190Y-82150000D01*
X138326190Y-82269047D01*
X138040476Y-81697619D02*
X138016666Y-81745238D01*
X137992857Y-81769047D01*
X137945238Y-81792857D01*
X137921428Y-81792857D01*
X137873809Y-81769047D01*
X137850000Y-81745238D01*
X137826190Y-81697619D01*
X137826190Y-81602380D01*
X137850000Y-81554761D01*
X137873809Y-81530952D01*
X137921428Y-81507142D01*
X137945238Y-81507142D01*
X137992857Y-81530952D01*
X138016666Y-81554761D01*
X138040476Y-81602380D01*
X138040476Y-81697619D01*
X138064285Y-81745238D01*
X138088095Y-81769047D01*
X138135714Y-81792857D01*
X138230952Y-81792857D01*
X138278571Y-81769047D01*
X138302380Y-81745238D01*
X138326190Y-81697619D01*
X138326190Y-81602380D01*
X138302380Y-81554761D01*
X138278571Y-81530952D01*
X138230952Y-81507142D01*
X138135714Y-81507142D01*
X138088095Y-81530952D01*
X138064285Y-81554761D01*
X138040476Y-81602380D01*
%TO.C,D7*%
X138326190Y-79769047D02*
X137826190Y-79769047D01*
X137826190Y-79650000D01*
X137850000Y-79578571D01*
X137897619Y-79530952D01*
X137945238Y-79507142D01*
X138040476Y-79483333D01*
X138111904Y-79483333D01*
X138207142Y-79507142D01*
X138254761Y-79530952D01*
X138302380Y-79578571D01*
X138326190Y-79650000D01*
X138326190Y-79769047D01*
X137826190Y-79316666D02*
X137826190Y-78983333D01*
X138326190Y-79197619D01*
%TO.C,D6*%
X138326190Y-77269047D02*
X137826190Y-77269047D01*
X137826190Y-77150000D01*
X137850000Y-77078571D01*
X137897619Y-77030952D01*
X137945238Y-77007142D01*
X138040476Y-76983333D01*
X138111904Y-76983333D01*
X138207142Y-77007142D01*
X138254761Y-77030952D01*
X138302380Y-77078571D01*
X138326190Y-77150000D01*
X138326190Y-77269047D01*
X137826190Y-76554761D02*
X137826190Y-76650000D01*
X137850000Y-76697619D01*
X137873809Y-76721428D01*
X137945238Y-76769047D01*
X138040476Y-76792857D01*
X138230952Y-76792857D01*
X138278571Y-76769047D01*
X138302380Y-76745238D01*
X138326190Y-76697619D01*
X138326190Y-76602380D01*
X138302380Y-76554761D01*
X138278571Y-76530952D01*
X138230952Y-76507142D01*
X138111904Y-76507142D01*
X138064285Y-76530952D01*
X138040476Y-76554761D01*
X138016666Y-76602380D01*
X138016666Y-76697619D01*
X138040476Y-76745238D01*
X138064285Y-76769047D01*
X138111904Y-76792857D01*
%TO.C,D5*%
X138326190Y-74769047D02*
X137826190Y-74769047D01*
X137826190Y-74650000D01*
X137850000Y-74578571D01*
X137897619Y-74530952D01*
X137945238Y-74507142D01*
X138040476Y-74483333D01*
X138111904Y-74483333D01*
X138207142Y-74507142D01*
X138254761Y-74530952D01*
X138302380Y-74578571D01*
X138326190Y-74650000D01*
X138326190Y-74769047D01*
X137826190Y-74030952D02*
X137826190Y-74269047D01*
X138064285Y-74292857D01*
X138040476Y-74269047D01*
X138016666Y-74221428D01*
X138016666Y-74102380D01*
X138040476Y-74054761D01*
X138064285Y-74030952D01*
X138111904Y-74007142D01*
X138230952Y-74007142D01*
X138278571Y-74030952D01*
X138302380Y-74054761D01*
X138326190Y-74102380D01*
X138326190Y-74221428D01*
X138302380Y-74269047D01*
X138278571Y-74292857D01*
%TO.C,D4*%
X138326190Y-72269047D02*
X137826190Y-72269047D01*
X137826190Y-72150000D01*
X137850000Y-72078571D01*
X137897619Y-72030952D01*
X137945238Y-72007142D01*
X138040476Y-71983333D01*
X138111904Y-71983333D01*
X138207142Y-72007142D01*
X138254761Y-72030952D01*
X138302380Y-72078571D01*
X138326190Y-72150000D01*
X138326190Y-72269047D01*
X137992857Y-71554761D02*
X138326190Y-71554761D01*
X137802380Y-71673809D02*
X138159523Y-71792857D01*
X138159523Y-71483333D01*
%TO.C,D3*%
X124826190Y-100769047D02*
X124326190Y-100769047D01*
X124326190Y-100650000D01*
X124350000Y-100578571D01*
X124397619Y-100530952D01*
X124445238Y-100507142D01*
X124540476Y-100483333D01*
X124611904Y-100483333D01*
X124707142Y-100507142D01*
X124754761Y-100530952D01*
X124802380Y-100578571D01*
X124826190Y-100650000D01*
X124826190Y-100769047D01*
X124326190Y-100316666D02*
X124326190Y-100007142D01*
X124516666Y-100173809D01*
X124516666Y-100102380D01*
X124540476Y-100054761D01*
X124564285Y-100030952D01*
X124611904Y-100007142D01*
X124730952Y-100007142D01*
X124778571Y-100030952D01*
X124802380Y-100054761D01*
X124826190Y-100102380D01*
X124826190Y-100245238D01*
X124802380Y-100292857D01*
X124778571Y-100316666D01*
%TO.C,C24*%
X101978571Y-68521428D02*
X102002380Y-68545238D01*
X102026190Y-68616666D01*
X102026190Y-68664285D01*
X102002380Y-68735714D01*
X101954761Y-68783333D01*
X101907142Y-68807142D01*
X101811904Y-68830952D01*
X101740476Y-68830952D01*
X101645238Y-68807142D01*
X101597619Y-68783333D01*
X101550000Y-68735714D01*
X101526190Y-68664285D01*
X101526190Y-68616666D01*
X101550000Y-68545238D01*
X101573809Y-68521428D01*
X101573809Y-68330952D02*
X101550000Y-68307142D01*
X101526190Y-68259523D01*
X101526190Y-68140476D01*
X101550000Y-68092857D01*
X101573809Y-68069047D01*
X101621428Y-68045238D01*
X101669047Y-68045238D01*
X101740476Y-68069047D01*
X102026190Y-68354761D01*
X102026190Y-68045238D01*
X101692857Y-67616666D02*
X102026190Y-67616666D01*
X101502380Y-67735714D02*
X101859523Y-67854761D01*
X101859523Y-67545238D01*
%TO.C,C23*%
X125478571Y-95478571D02*
X125454761Y-95502380D01*
X125383333Y-95526190D01*
X125335714Y-95526190D01*
X125264285Y-95502380D01*
X125216666Y-95454761D01*
X125192857Y-95407142D01*
X125169047Y-95311904D01*
X125169047Y-95240476D01*
X125192857Y-95145238D01*
X125216666Y-95097619D01*
X125264285Y-95050000D01*
X125335714Y-95026190D01*
X125383333Y-95026190D01*
X125454761Y-95050000D01*
X125478571Y-95073809D01*
X125669047Y-95073809D02*
X125692857Y-95050000D01*
X125740476Y-95026190D01*
X125859523Y-95026190D01*
X125907142Y-95050000D01*
X125930952Y-95073809D01*
X125954761Y-95121428D01*
X125954761Y-95169047D01*
X125930952Y-95240476D01*
X125645238Y-95526190D01*
X125954761Y-95526190D01*
X126121428Y-95026190D02*
X126430952Y-95026190D01*
X126264285Y-95216666D01*
X126335714Y-95216666D01*
X126383333Y-95240476D01*
X126407142Y-95264285D01*
X126430952Y-95311904D01*
X126430952Y-95430952D01*
X126407142Y-95478571D01*
X126383333Y-95502380D01*
X126335714Y-95526190D01*
X126192857Y-95526190D01*
X126145238Y-95502380D01*
X126121428Y-95478571D01*
%TO.C,C22*%
X101928571Y-63778571D02*
X101904761Y-63802380D01*
X101833333Y-63826190D01*
X101785714Y-63826190D01*
X101714285Y-63802380D01*
X101666666Y-63754761D01*
X101642857Y-63707142D01*
X101619047Y-63611904D01*
X101619047Y-63540476D01*
X101642857Y-63445238D01*
X101666666Y-63397619D01*
X101714285Y-63350000D01*
X101785714Y-63326190D01*
X101833333Y-63326190D01*
X101904761Y-63350000D01*
X101928571Y-63373809D01*
X102119047Y-63373809D02*
X102142857Y-63350000D01*
X102190476Y-63326190D01*
X102309523Y-63326190D01*
X102357142Y-63350000D01*
X102380952Y-63373809D01*
X102404761Y-63421428D01*
X102404761Y-63469047D01*
X102380952Y-63540476D01*
X102095238Y-63826190D01*
X102404761Y-63826190D01*
X102595238Y-63373809D02*
X102619047Y-63350000D01*
X102666666Y-63326190D01*
X102785714Y-63326190D01*
X102833333Y-63350000D01*
X102857142Y-63373809D01*
X102880952Y-63421428D01*
X102880952Y-63469047D01*
X102857142Y-63540476D01*
X102571428Y-63826190D01*
X102880952Y-63826190D01*
%TO.C,C21*%
X109578571Y-68571428D02*
X109602380Y-68595238D01*
X109626190Y-68666666D01*
X109626190Y-68714285D01*
X109602380Y-68785714D01*
X109554761Y-68833333D01*
X109507142Y-68857142D01*
X109411904Y-68880952D01*
X109340476Y-68880952D01*
X109245238Y-68857142D01*
X109197619Y-68833333D01*
X109150000Y-68785714D01*
X109126190Y-68714285D01*
X109126190Y-68666666D01*
X109150000Y-68595238D01*
X109173809Y-68571428D01*
X109173809Y-68380952D02*
X109150000Y-68357142D01*
X109126190Y-68309523D01*
X109126190Y-68190476D01*
X109150000Y-68142857D01*
X109173809Y-68119047D01*
X109221428Y-68095238D01*
X109269047Y-68095238D01*
X109340476Y-68119047D01*
X109626190Y-68404761D01*
X109626190Y-68095238D01*
X109626190Y-67619047D02*
X109626190Y-67904761D01*
X109626190Y-67761904D02*
X109126190Y-67761904D01*
X109197619Y-67809523D01*
X109245238Y-67857142D01*
X109269047Y-67904761D01*
%TO.C,C20*%
X110178571Y-63778571D02*
X110154761Y-63802380D01*
X110083333Y-63826190D01*
X110035714Y-63826190D01*
X109964285Y-63802380D01*
X109916666Y-63754761D01*
X109892857Y-63707142D01*
X109869047Y-63611904D01*
X109869047Y-63540476D01*
X109892857Y-63445238D01*
X109916666Y-63397619D01*
X109964285Y-63350000D01*
X110035714Y-63326190D01*
X110083333Y-63326190D01*
X110154761Y-63350000D01*
X110178571Y-63373809D01*
X110369047Y-63373809D02*
X110392857Y-63350000D01*
X110440476Y-63326190D01*
X110559523Y-63326190D01*
X110607142Y-63350000D01*
X110630952Y-63373809D01*
X110654761Y-63421428D01*
X110654761Y-63469047D01*
X110630952Y-63540476D01*
X110345238Y-63826190D01*
X110654761Y-63826190D01*
X110964285Y-63326190D02*
X111011904Y-63326190D01*
X111059523Y-63350000D01*
X111083333Y-63373809D01*
X111107142Y-63421428D01*
X111130952Y-63516666D01*
X111130952Y-63635714D01*
X111107142Y-63730952D01*
X111083333Y-63778571D01*
X111059523Y-63802380D01*
X111011904Y-63826190D01*
X110964285Y-63826190D01*
X110916666Y-63802380D01*
X110892857Y-63778571D01*
X110869047Y-63730952D01*
X110845238Y-63635714D01*
X110845238Y-63516666D01*
X110869047Y-63421428D01*
X110892857Y-63373809D01*
X110916666Y-63350000D01*
X110964285Y-63326190D01*
%TO.C,C19*%
X135428571Y-95478571D02*
X135404761Y-95502380D01*
X135333333Y-95526190D01*
X135285714Y-95526190D01*
X135214285Y-95502380D01*
X135166666Y-95454761D01*
X135142857Y-95407142D01*
X135119047Y-95311904D01*
X135119047Y-95240476D01*
X135142857Y-95145238D01*
X135166666Y-95097619D01*
X135214285Y-95050000D01*
X135285714Y-95026190D01*
X135333333Y-95026190D01*
X135404761Y-95050000D01*
X135428571Y-95073809D01*
X135904761Y-95526190D02*
X135619047Y-95526190D01*
X135761904Y-95526190D02*
X135761904Y-95026190D01*
X135714285Y-95097619D01*
X135666666Y-95145238D01*
X135619047Y-95169047D01*
X136142857Y-95526190D02*
X136238095Y-95526190D01*
X136285714Y-95502380D01*
X136309523Y-95478571D01*
X136357142Y-95407142D01*
X136380952Y-95311904D01*
X136380952Y-95121428D01*
X136357142Y-95073809D01*
X136333333Y-95050000D01*
X136285714Y-95026190D01*
X136190476Y-95026190D01*
X136142857Y-95050000D01*
X136119047Y-95073809D01*
X136095238Y-95121428D01*
X136095238Y-95240476D01*
X136119047Y-95288095D01*
X136142857Y-95311904D01*
X136190476Y-95335714D01*
X136285714Y-95335714D01*
X136333333Y-95311904D01*
X136357142Y-95288095D01*
X136380952Y-95240476D01*
%TO.C,C18*%
X138678571Y-55478571D02*
X138654761Y-55502380D01*
X138583333Y-55526190D01*
X138535714Y-55526190D01*
X138464285Y-55502380D01*
X138416666Y-55454761D01*
X138392857Y-55407142D01*
X138369047Y-55311904D01*
X138369047Y-55240476D01*
X138392857Y-55145238D01*
X138416666Y-55097619D01*
X138464285Y-55050000D01*
X138535714Y-55026190D01*
X138583333Y-55026190D01*
X138654761Y-55050000D01*
X138678571Y-55073809D01*
X139154761Y-55526190D02*
X138869047Y-55526190D01*
X139011904Y-55526190D02*
X139011904Y-55026190D01*
X138964285Y-55097619D01*
X138916666Y-55145238D01*
X138869047Y-55169047D01*
X139440476Y-55240476D02*
X139392857Y-55216666D01*
X139369047Y-55192857D01*
X139345238Y-55145238D01*
X139345238Y-55121428D01*
X139369047Y-55073809D01*
X139392857Y-55050000D01*
X139440476Y-55026190D01*
X139535714Y-55026190D01*
X139583333Y-55050000D01*
X139607142Y-55073809D01*
X139630952Y-55121428D01*
X139630952Y-55145238D01*
X139607142Y-55192857D01*
X139583333Y-55216666D01*
X139535714Y-55240476D01*
X139440476Y-55240476D01*
X139392857Y-55264285D01*
X139369047Y-55288095D01*
X139345238Y-55335714D01*
X139345238Y-55430952D01*
X139369047Y-55478571D01*
X139392857Y-55502380D01*
X139440476Y-55526190D01*
X139535714Y-55526190D01*
X139583333Y-55502380D01*
X139607142Y-55478571D01*
X139630952Y-55430952D01*
X139630952Y-55335714D01*
X139607142Y-55288095D01*
X139583333Y-55264285D01*
X139535714Y-55240476D01*
%TO.C,C16*%
X127178571Y-95478571D02*
X127154761Y-95502380D01*
X127083333Y-95526190D01*
X127035714Y-95526190D01*
X126964285Y-95502380D01*
X126916666Y-95454761D01*
X126892857Y-95407142D01*
X126869047Y-95311904D01*
X126869047Y-95240476D01*
X126892857Y-95145238D01*
X126916666Y-95097619D01*
X126964285Y-95050000D01*
X127035714Y-95026190D01*
X127083333Y-95026190D01*
X127154761Y-95050000D01*
X127178571Y-95073809D01*
X127654761Y-95526190D02*
X127369047Y-95526190D01*
X127511904Y-95526190D02*
X127511904Y-95026190D01*
X127464285Y-95097619D01*
X127416666Y-95145238D01*
X127369047Y-95169047D01*
X128083333Y-95026190D02*
X127988095Y-95026190D01*
X127940476Y-95050000D01*
X127916666Y-95073809D01*
X127869047Y-95145238D01*
X127845238Y-95240476D01*
X127845238Y-95430952D01*
X127869047Y-95478571D01*
X127892857Y-95502380D01*
X127940476Y-95526190D01*
X128035714Y-95526190D01*
X128083333Y-95502380D01*
X128107142Y-95478571D01*
X128130952Y-95430952D01*
X128130952Y-95311904D01*
X128107142Y-95264285D01*
X128083333Y-95240476D01*
X128035714Y-95216666D01*
X127940476Y-95216666D01*
X127892857Y-95240476D01*
X127869047Y-95264285D01*
X127845238Y-95311904D01*
%TO.C,C15*%
X134878571Y-100321428D02*
X134902380Y-100345238D01*
X134926190Y-100416666D01*
X134926190Y-100464285D01*
X134902380Y-100535714D01*
X134854761Y-100583333D01*
X134807142Y-100607142D01*
X134711904Y-100630952D01*
X134640476Y-100630952D01*
X134545238Y-100607142D01*
X134497619Y-100583333D01*
X134450000Y-100535714D01*
X134426190Y-100464285D01*
X134426190Y-100416666D01*
X134450000Y-100345238D01*
X134473809Y-100321428D01*
X134926190Y-99845238D02*
X134926190Y-100130952D01*
X134926190Y-99988095D02*
X134426190Y-99988095D01*
X134497619Y-100035714D01*
X134545238Y-100083333D01*
X134569047Y-100130952D01*
X134426190Y-99392857D02*
X134426190Y-99630952D01*
X134664285Y-99654761D01*
X134640476Y-99630952D01*
X134616666Y-99583333D01*
X134616666Y-99464285D01*
X134640476Y-99416666D01*
X134664285Y-99392857D01*
X134711904Y-99369047D01*
X134830952Y-99369047D01*
X134878571Y-99392857D01*
X134902380Y-99416666D01*
X134926190Y-99464285D01*
X134926190Y-99583333D01*
X134902380Y-99630952D01*
X134878571Y-99654761D01*
%TO.C,C14*%
X118378571Y-68421428D02*
X118402380Y-68445238D01*
X118426190Y-68516666D01*
X118426190Y-68564285D01*
X118402380Y-68635714D01*
X118354761Y-68683333D01*
X118307142Y-68707142D01*
X118211904Y-68730952D01*
X118140476Y-68730952D01*
X118045238Y-68707142D01*
X117997619Y-68683333D01*
X117950000Y-68635714D01*
X117926190Y-68564285D01*
X117926190Y-68516666D01*
X117950000Y-68445238D01*
X117973809Y-68421428D01*
X118426190Y-67945238D02*
X118426190Y-68230952D01*
X118426190Y-68088095D02*
X117926190Y-68088095D01*
X117997619Y-68135714D01*
X118045238Y-68183333D01*
X118069047Y-68230952D01*
X118092857Y-67516666D02*
X118426190Y-67516666D01*
X117902380Y-67635714D02*
X118259523Y-67754761D01*
X118259523Y-67445238D01*
%TO.C,C13*%
X129078571Y-70121428D02*
X129102380Y-70145238D01*
X129126190Y-70216666D01*
X129126190Y-70264285D01*
X129102380Y-70335714D01*
X129054761Y-70383333D01*
X129007142Y-70407142D01*
X128911904Y-70430952D01*
X128840476Y-70430952D01*
X128745238Y-70407142D01*
X128697619Y-70383333D01*
X128650000Y-70335714D01*
X128626190Y-70264285D01*
X128626190Y-70216666D01*
X128650000Y-70145238D01*
X128673809Y-70121428D01*
X129126190Y-69645238D02*
X129126190Y-69930952D01*
X129126190Y-69788095D02*
X128626190Y-69788095D01*
X128697619Y-69835714D01*
X128745238Y-69883333D01*
X128769047Y-69930952D01*
X128626190Y-69478571D02*
X128626190Y-69169047D01*
X128816666Y-69335714D01*
X128816666Y-69264285D01*
X128840476Y-69216666D01*
X128864285Y-69192857D01*
X128911904Y-69169047D01*
X129030952Y-69169047D01*
X129078571Y-69192857D01*
X129102380Y-69216666D01*
X129126190Y-69264285D01*
X129126190Y-69407142D01*
X129102380Y-69454761D01*
X129078571Y-69478571D01*
%TO.C,C12*%
X127478571Y-87678571D02*
X127454761Y-87702380D01*
X127383333Y-87726190D01*
X127335714Y-87726190D01*
X127264285Y-87702380D01*
X127216666Y-87654761D01*
X127192857Y-87607142D01*
X127169047Y-87511904D01*
X127169047Y-87440476D01*
X127192857Y-87345238D01*
X127216666Y-87297619D01*
X127264285Y-87250000D01*
X127335714Y-87226190D01*
X127383333Y-87226190D01*
X127454761Y-87250000D01*
X127478571Y-87273809D01*
X127954761Y-87726190D02*
X127669047Y-87726190D01*
X127811904Y-87726190D02*
X127811904Y-87226190D01*
X127764285Y-87297619D01*
X127716666Y-87345238D01*
X127669047Y-87369047D01*
X128145238Y-87273809D02*
X128169047Y-87250000D01*
X128216666Y-87226190D01*
X128335714Y-87226190D01*
X128383333Y-87250000D01*
X128407142Y-87273809D01*
X128430952Y-87321428D01*
X128430952Y-87369047D01*
X128407142Y-87440476D01*
X128121428Y-87726190D01*
X128430952Y-87726190D01*
%TO.C,C11*%
X124078571Y-62078571D02*
X124054761Y-62102380D01*
X123983333Y-62126190D01*
X123935714Y-62126190D01*
X123864285Y-62102380D01*
X123816666Y-62054761D01*
X123792857Y-62007142D01*
X123769047Y-61911904D01*
X123769047Y-61840476D01*
X123792857Y-61745238D01*
X123816666Y-61697619D01*
X123864285Y-61650000D01*
X123935714Y-61626190D01*
X123983333Y-61626190D01*
X124054761Y-61650000D01*
X124078571Y-61673809D01*
X124554761Y-62126190D02*
X124269047Y-62126190D01*
X124411904Y-62126190D02*
X124411904Y-61626190D01*
X124364285Y-61697619D01*
X124316666Y-61745238D01*
X124269047Y-61769047D01*
X125030952Y-62126190D02*
X124745238Y-62126190D01*
X124888095Y-62126190D02*
X124888095Y-61626190D01*
X124840476Y-61697619D01*
X124792857Y-61745238D01*
X124745238Y-61769047D01*
%TO.C,C10*%
X118378571Y-70021428D02*
X118402380Y-70045238D01*
X118426190Y-70116666D01*
X118426190Y-70164285D01*
X118402380Y-70235714D01*
X118354761Y-70283333D01*
X118307142Y-70307142D01*
X118211904Y-70330952D01*
X118140476Y-70330952D01*
X118045238Y-70307142D01*
X117997619Y-70283333D01*
X117950000Y-70235714D01*
X117926190Y-70164285D01*
X117926190Y-70116666D01*
X117950000Y-70045238D01*
X117973809Y-70021428D01*
X118426190Y-69545238D02*
X118426190Y-69830952D01*
X118426190Y-69688095D02*
X117926190Y-69688095D01*
X117997619Y-69735714D01*
X118045238Y-69783333D01*
X118069047Y-69830952D01*
X117926190Y-69235714D02*
X117926190Y-69188095D01*
X117950000Y-69140476D01*
X117973809Y-69116666D01*
X118021428Y-69092857D01*
X118116666Y-69069047D01*
X118235714Y-69069047D01*
X118330952Y-69092857D01*
X118378571Y-69116666D01*
X118402380Y-69140476D01*
X118426190Y-69188095D01*
X118426190Y-69235714D01*
X118402380Y-69283333D01*
X118378571Y-69307142D01*
X118330952Y-69330952D01*
X118235714Y-69354761D01*
X118116666Y-69354761D01*
X118021428Y-69330952D01*
X117973809Y-69307142D01*
X117950000Y-69283333D01*
X117926190Y-69235714D01*
%TO.C,C9*%
X113878571Y-74583333D02*
X113902380Y-74607142D01*
X113926190Y-74678571D01*
X113926190Y-74726190D01*
X113902380Y-74797619D01*
X113854761Y-74845238D01*
X113807142Y-74869047D01*
X113711904Y-74892857D01*
X113640476Y-74892857D01*
X113545238Y-74869047D01*
X113497619Y-74845238D01*
X113450000Y-74797619D01*
X113426190Y-74726190D01*
X113426190Y-74678571D01*
X113450000Y-74607142D01*
X113473809Y-74583333D01*
X113926190Y-74345238D02*
X113926190Y-74250000D01*
X113902380Y-74202380D01*
X113878571Y-74178571D01*
X113807142Y-74130952D01*
X113711904Y-74107142D01*
X113521428Y-74107142D01*
X113473809Y-74130952D01*
X113450000Y-74154761D01*
X113426190Y-74202380D01*
X113426190Y-74297619D01*
X113450000Y-74345238D01*
X113473809Y-74369047D01*
X113521428Y-74392857D01*
X113640476Y-74392857D01*
X113688095Y-74369047D01*
X113711904Y-74345238D01*
X113735714Y-74297619D01*
X113735714Y-74202380D01*
X113711904Y-74154761D01*
X113688095Y-74130952D01*
X113640476Y-74107142D01*
%TO.C,C8*%
X134378571Y-73683333D02*
X134402380Y-73707142D01*
X134426190Y-73778571D01*
X134426190Y-73826190D01*
X134402380Y-73897619D01*
X134354761Y-73945238D01*
X134307142Y-73969047D01*
X134211904Y-73992857D01*
X134140476Y-73992857D01*
X134045238Y-73969047D01*
X133997619Y-73945238D01*
X133950000Y-73897619D01*
X133926190Y-73826190D01*
X133926190Y-73778571D01*
X133950000Y-73707142D01*
X133973809Y-73683333D01*
X134140476Y-73397619D02*
X134116666Y-73445238D01*
X134092857Y-73469047D01*
X134045238Y-73492857D01*
X134021428Y-73492857D01*
X133973809Y-73469047D01*
X133950000Y-73445238D01*
X133926190Y-73397619D01*
X133926190Y-73302380D01*
X133950000Y-73254761D01*
X133973809Y-73230952D01*
X134021428Y-73207142D01*
X134045238Y-73207142D01*
X134092857Y-73230952D01*
X134116666Y-73254761D01*
X134140476Y-73302380D01*
X134140476Y-73397619D01*
X134164285Y-73445238D01*
X134188095Y-73469047D01*
X134235714Y-73492857D01*
X134330952Y-73492857D01*
X134378571Y-73469047D01*
X134402380Y-73445238D01*
X134426190Y-73397619D01*
X134426190Y-73302380D01*
X134402380Y-73254761D01*
X134378571Y-73230952D01*
X134330952Y-73207142D01*
X134235714Y-73207142D01*
X134188095Y-73230952D01*
X134164285Y-73254761D01*
X134140476Y-73302380D01*
%TO.C,C7*%
X126516666Y-62078571D02*
X126492857Y-62102380D01*
X126421428Y-62126190D01*
X126373809Y-62126190D01*
X126302380Y-62102380D01*
X126254761Y-62054761D01*
X126230952Y-62007142D01*
X126207142Y-61911904D01*
X126207142Y-61840476D01*
X126230952Y-61745238D01*
X126254761Y-61697619D01*
X126302380Y-61650000D01*
X126373809Y-61626190D01*
X126421428Y-61626190D01*
X126492857Y-61650000D01*
X126516666Y-61673809D01*
X126683333Y-61626190D02*
X127016666Y-61626190D01*
X126802380Y-62126190D01*
%TO.C,C6*%
X113878571Y-81083333D02*
X113902380Y-81107142D01*
X113926190Y-81178571D01*
X113926190Y-81226190D01*
X113902380Y-81297619D01*
X113854761Y-81345238D01*
X113807142Y-81369047D01*
X113711904Y-81392857D01*
X113640476Y-81392857D01*
X113545238Y-81369047D01*
X113497619Y-81345238D01*
X113450000Y-81297619D01*
X113426190Y-81226190D01*
X113426190Y-81178571D01*
X113450000Y-81107142D01*
X113473809Y-81083333D01*
X113426190Y-80654761D02*
X113426190Y-80750000D01*
X113450000Y-80797619D01*
X113473809Y-80821428D01*
X113545238Y-80869047D01*
X113640476Y-80892857D01*
X113830952Y-80892857D01*
X113878571Y-80869047D01*
X113902380Y-80845238D01*
X113926190Y-80797619D01*
X113926190Y-80702380D01*
X113902380Y-80654761D01*
X113878571Y-80630952D01*
X113830952Y-80607142D01*
X113711904Y-80607142D01*
X113664285Y-80630952D01*
X113640476Y-80654761D01*
X113616666Y-80702380D01*
X113616666Y-80797619D01*
X113640476Y-80845238D01*
X113664285Y-80869047D01*
X113711904Y-80892857D01*
%TO.C,C5*%
X129316666Y-87678571D02*
X129292857Y-87702380D01*
X129221428Y-87726190D01*
X129173809Y-87726190D01*
X129102380Y-87702380D01*
X129054761Y-87654761D01*
X129030952Y-87607142D01*
X129007142Y-87511904D01*
X129007142Y-87440476D01*
X129030952Y-87345238D01*
X129054761Y-87297619D01*
X129102380Y-87250000D01*
X129173809Y-87226190D01*
X129221428Y-87226190D01*
X129292857Y-87250000D01*
X129316666Y-87273809D01*
X129769047Y-87226190D02*
X129530952Y-87226190D01*
X129507142Y-87464285D01*
X129530952Y-87440476D01*
X129578571Y-87416666D01*
X129697619Y-87416666D01*
X129745238Y-87440476D01*
X129769047Y-87464285D01*
X129792857Y-87511904D01*
X129792857Y-87630952D01*
X129769047Y-87678571D01*
X129745238Y-87702380D01*
X129697619Y-87726190D01*
X129578571Y-87726190D01*
X129530952Y-87702380D01*
X129507142Y-87678571D01*
%TO.C,C4*%
X112216666Y-71778571D02*
X112192857Y-71802380D01*
X112121428Y-71826190D01*
X112073809Y-71826190D01*
X112002380Y-71802380D01*
X111954761Y-71754761D01*
X111930952Y-71707142D01*
X111907142Y-71611904D01*
X111907142Y-71540476D01*
X111930952Y-71445238D01*
X111954761Y-71397619D01*
X112002380Y-71350000D01*
X112073809Y-71326190D01*
X112121428Y-71326190D01*
X112192857Y-71350000D01*
X112216666Y-71373809D01*
X112645238Y-71492857D02*
X112645238Y-71826190D01*
X112526190Y-71302380D02*
X112407142Y-71659523D01*
X112716666Y-71659523D01*
%TO.C,C3*%
X112216666Y-82078571D02*
X112192857Y-82102380D01*
X112121428Y-82126190D01*
X112073809Y-82126190D01*
X112002380Y-82102380D01*
X111954761Y-82054761D01*
X111930952Y-82007142D01*
X111907142Y-81911904D01*
X111907142Y-81840476D01*
X111930952Y-81745238D01*
X111954761Y-81697619D01*
X112002380Y-81650000D01*
X112073809Y-81626190D01*
X112121428Y-81626190D01*
X112192857Y-81650000D01*
X112216666Y-81673809D01*
X112383333Y-81626190D02*
X112692857Y-81626190D01*
X112526190Y-81816666D01*
X112597619Y-81816666D01*
X112645238Y-81840476D01*
X112669047Y-81864285D01*
X112692857Y-81911904D01*
X112692857Y-82030952D01*
X112669047Y-82078571D01*
X112645238Y-82102380D01*
X112597619Y-82126190D01*
X112454761Y-82126190D01*
X112407142Y-82102380D01*
X112383333Y-82078571D01*
%TO.C,C2*%
X131016666Y-87678571D02*
X130992857Y-87702380D01*
X130921428Y-87726190D01*
X130873809Y-87726190D01*
X130802380Y-87702380D01*
X130754761Y-87654761D01*
X130730952Y-87607142D01*
X130707142Y-87511904D01*
X130707142Y-87440476D01*
X130730952Y-87345238D01*
X130754761Y-87297619D01*
X130802380Y-87250000D01*
X130873809Y-87226190D01*
X130921428Y-87226190D01*
X130992857Y-87250000D01*
X131016666Y-87273809D01*
X131207142Y-87273809D02*
X131230952Y-87250000D01*
X131278571Y-87226190D01*
X131397619Y-87226190D01*
X131445238Y-87250000D01*
X131469047Y-87273809D01*
X131492857Y-87321428D01*
X131492857Y-87369047D01*
X131469047Y-87440476D01*
X131183333Y-87726190D01*
X131492857Y-87726190D01*
%TO.C,C1*%
X113878571Y-79483333D02*
X113902380Y-79507142D01*
X113926190Y-79578571D01*
X113926190Y-79626190D01*
X113902380Y-79697619D01*
X113854761Y-79745238D01*
X113807142Y-79769047D01*
X113711904Y-79792857D01*
X113640476Y-79792857D01*
X113545238Y-79769047D01*
X113497619Y-79745238D01*
X113450000Y-79697619D01*
X113426190Y-79626190D01*
X113426190Y-79578571D01*
X113450000Y-79507142D01*
X113473809Y-79483333D01*
X113926190Y-79007142D02*
X113926190Y-79292857D01*
X113926190Y-79150000D02*
X113426190Y-79150000D01*
X113497619Y-79197619D01*
X113545238Y-79245238D01*
X113569047Y-79292857D01*
%TO.C,Y1*%
X127961904Y-67288095D02*
X127961904Y-67526190D01*
X127795238Y-67026190D02*
X127961904Y-67288095D01*
X128128571Y-67026190D01*
X128557142Y-67526190D02*
X128271428Y-67526190D01*
X128414285Y-67526190D02*
X128414285Y-67026190D01*
X128366666Y-67097619D01*
X128319047Y-67145238D01*
X128271428Y-67169047D01*
%TO.C,U6*%
X113426190Y-99780952D02*
X113830952Y-99780952D01*
X113878571Y-99757142D01*
X113902380Y-99733333D01*
X113926190Y-99685714D01*
X113926190Y-99590476D01*
X113902380Y-99542857D01*
X113878571Y-99519047D01*
X113830952Y-99495238D01*
X113426190Y-99495238D01*
X113426190Y-99042857D02*
X113426190Y-99138095D01*
X113450000Y-99185714D01*
X113473809Y-99209523D01*
X113545238Y-99257142D01*
X113640476Y-99280952D01*
X113830952Y-99280952D01*
X113878571Y-99257142D01*
X113902380Y-99233333D01*
X113926190Y-99185714D01*
X113926190Y-99090476D01*
X113902380Y-99042857D01*
X113878571Y-99019047D01*
X113830952Y-98995238D01*
X113711904Y-98995238D01*
X113664285Y-99019047D01*
X113640476Y-99042857D01*
X113616666Y-99090476D01*
X113616666Y-99185714D01*
X113640476Y-99233333D01*
X113664285Y-99257142D01*
X113711904Y-99280952D01*
%TO.C,U5*%
D11*
X132538095Y-64452380D02*
X132538095Y-65261904D01*
X132585714Y-65357142D01*
X132633333Y-65404761D01*
X132728571Y-65452380D01*
X132919047Y-65452380D01*
X133014285Y-65404761D01*
X133061904Y-65357142D01*
X133109523Y-65261904D01*
X133109523Y-64452380D01*
X134061904Y-64452380D02*
X133585714Y-64452380D01*
X133538095Y-64928571D01*
X133585714Y-64880952D01*
X133680952Y-64833333D01*
X133919047Y-64833333D01*
X134014285Y-64880952D01*
X134061904Y-64928571D01*
X134109523Y-65023809D01*
X134109523Y-65261904D01*
X134061904Y-65357142D01*
X134014285Y-65404761D01*
X133919047Y-65452380D01*
X133680952Y-65452380D01*
X133585714Y-65404761D01*
X133538095Y-65357142D01*
%TO.C,U3*%
X106738095Y-71452380D02*
X106738095Y-72261904D01*
X106785714Y-72357142D01*
X106833333Y-72404761D01*
X106928571Y-72452380D01*
X107119047Y-72452380D01*
X107214285Y-72404761D01*
X107261904Y-72357142D01*
X107309523Y-72261904D01*
X107309523Y-71452380D01*
X107690476Y-71452380D02*
X108309523Y-71452380D01*
X107976190Y-71833333D01*
X108119047Y-71833333D01*
X108214285Y-71880952D01*
X108261904Y-71928571D01*
X108309523Y-72023809D01*
X108309523Y-72261904D01*
X108261904Y-72357142D01*
X108214285Y-72404761D01*
X108119047Y-72452380D01*
X107833333Y-72452380D01*
X107738095Y-72404761D01*
X107690476Y-72357142D01*
%TO.C,U2*%
X126038095Y-79552380D02*
X126038095Y-80361904D01*
X126085714Y-80457142D01*
X126133333Y-80504761D01*
X126228571Y-80552380D01*
X126419047Y-80552380D01*
X126514285Y-80504761D01*
X126561904Y-80457142D01*
X126609523Y-80361904D01*
X126609523Y-79552380D01*
X127038095Y-79647619D02*
X127085714Y-79600000D01*
X127180952Y-79552380D01*
X127419047Y-79552380D01*
X127514285Y-79600000D01*
X127561904Y-79647619D01*
X127609523Y-79742857D01*
X127609523Y-79838095D01*
X127561904Y-79980952D01*
X126990476Y-80552380D01*
X127609523Y-80552380D01*
%TO.C,U1*%
X106738095Y-77952380D02*
X106738095Y-78761904D01*
X106785714Y-78857142D01*
X106833333Y-78904761D01*
X106928571Y-78952380D01*
X107119047Y-78952380D01*
X107214285Y-78904761D01*
X107261904Y-78857142D01*
X107309523Y-78761904D01*
X107309523Y-77952380D01*
X108309523Y-78952380D02*
X107738095Y-78952380D01*
X108023809Y-78952380D02*
X108023809Y-77952380D01*
X107928571Y-78095238D01*
X107833333Y-78190476D01*
X107738095Y-78238095D01*
%TO.C,L1*%
D15*
X118926190Y-66883333D02*
X118926190Y-67121428D01*
X118426190Y-67121428D01*
X118926190Y-66454761D02*
X118926190Y-66740476D01*
X118926190Y-66597619D02*
X118426190Y-66597619D01*
X118497619Y-66645238D01*
X118545238Y-66692857D01*
X118569047Y-66740476D01*
%TO.C,J3*%
D11*
X132166666Y-103452380D02*
X132166666Y-104166666D01*
X132119047Y-104309523D01*
X132023809Y-104404761D01*
X131880952Y-104452380D01*
X131785714Y-104452380D01*
X132547619Y-103452380D02*
X133166666Y-103452380D01*
X132833333Y-103833333D01*
X132976190Y-103833333D01*
X133071428Y-103880952D01*
X133119047Y-103928571D01*
X133166666Y-104023809D01*
X133166666Y-104261904D01*
X133119047Y-104357142D01*
X133071428Y-104404761D01*
X132976190Y-104452380D01*
X132690476Y-104452380D01*
X132595238Y-104404761D01*
X132547619Y-104357142D01*
%TO.C,D2*%
D15*
X119526190Y-96169047D02*
X119026190Y-96169047D01*
X119026190Y-96050000D01*
X119050000Y-95978571D01*
X119097619Y-95930952D01*
X119145238Y-95907142D01*
X119240476Y-95883333D01*
X119311904Y-95883333D01*
X119407142Y-95907142D01*
X119454761Y-95930952D01*
X119502380Y-95978571D01*
X119526190Y-96050000D01*
X119526190Y-96169047D01*
X119073809Y-95692857D02*
X119050000Y-95669047D01*
X119026190Y-95621428D01*
X119026190Y-95502380D01*
X119050000Y-95454761D01*
X119073809Y-95430952D01*
X119121428Y-95407142D01*
X119169047Y-95407142D01*
X119240476Y-95430952D01*
X119526190Y-95716666D01*
X119526190Y-95407142D01*
%TO.C,D1*%
X119526190Y-98969047D02*
X119026190Y-98969047D01*
X119026190Y-98850000D01*
X119050000Y-98778571D01*
X119097619Y-98730952D01*
X119145238Y-98707142D01*
X119240476Y-98683333D01*
X119311904Y-98683333D01*
X119407142Y-98707142D01*
X119454761Y-98730952D01*
X119502380Y-98778571D01*
X119526190Y-98850000D01*
X119526190Y-98969047D01*
X119526190Y-98207142D02*
X119526190Y-98492857D01*
X119526190Y-98350000D02*
X119026190Y-98350000D01*
X119097619Y-98397619D01*
X119145238Y-98445238D01*
X119169047Y-98492857D01*
%TD*%
M02*
