M48
; DRILL file {KiCad (5.1.6-0-10_14)} date Friday, February 05, 2021 at 12:28:26 AM
; FORMAT={-:-/ absolute / inch / decimal}
; #@! TF.CreationDate,2021-02-05T00:28:26-08:00
; #@! TF.GenerationSoftware,Kicad,Pcbnew,(5.1.6-0-10_14)
FMAT,2
INCH
T1C0.0118
T2C0.0157
T3C0.0250
T4C0.0394
T5C0.0433
T6C0.0512
T7C0.0866
T8C0.0354
%
G90
G05
T1
X4.2323Y-2.5591
X4.2323Y-2.8543
X4.3701Y-4.0945
X4.3701Y-4.2913
X4.5315Y-3.9921
X4.7244Y-4.0945
X4.7244Y-4.2913
T2
X4.0157Y-3.7008
X4.0157Y-3.8189
X4.0157Y-3.937
X4.0157Y-4.0551
X4.0256Y-2.7854
X4.0256Y-3.0413
X4.0276Y-2.4488
X4.0551Y-2.6457
X4.1339Y-3.2677
X4.1339Y-3.4449
X4.1457Y-2.5787
X4.1496Y-2.7165
X4.2323Y-3.4449
X4.2323Y-3.8583
X4.2559Y-2.4764
X4.3228Y-2.6764
X4.3622Y-2.6575
X4.3898Y-3.7008
X4.4213Y-2.7441
X4.4213Y-3.0157
X4.5472Y-3.5433
X4.5827Y-2.7441
X4.6366Y-2.5878
X4.6457Y-3.8386
X4.6496Y-2.8307
X4.7047Y-3.3858
X4.7264Y-2.935
X4.7283Y-3.126
X4.8031Y-3.6811
X4.8031Y-3.9764
X4.8071Y-4.1811
X4.8819Y-2.252
X4.8819Y-2.9331
X4.8937Y-3.3425
X4.9021Y-3.7977
X4.9213Y-3.5827
X4.9213Y-3.6811
X5.0236Y-2.9331
X5.063Y-3.5827
X5.063Y-3.6811
X5.063Y-4.3268
X5.0669Y-3.2874
X5.1181Y-2.8228
X5.1777Y-2.8233
X5.2252Y-3.8268
X5.2362Y-3.189
X5.2485Y-2.847
X5.2874Y-2.9646
X5.3465Y-3.5394
X5.3465Y-3.937
X5.3543Y-3.189
X5.3543Y-3.3465
X5.3976Y-2.7795
X5.3976Y-2.9646
X5.4291Y-2.4843
X5.4331Y-2.4213
X5.4724Y-3.3465
X5.5118Y-2.3622
X5.5197Y-2.6417
X5.5197Y-3.5394
X5.5906Y-3.3465
X5.689Y-3.6811
X5.689Y-3.8583
X5.689Y-4.0354
X5.7283Y-2.7362
X4.0098Y-4.252
X4.0289Y-4.206
X4.0289Y-4.2979
X4.0748Y-4.187
X4.0748Y-4.3169
X4.1207Y-4.206
X4.1207Y-4.2979
X4.1398Y-4.252
X4.0098Y-2.1063
X4.0289Y-2.0604
X4.0289Y-2.1522
X4.0748Y-2.0413
X4.0748Y-2.1713
X4.1207Y-2.0604
X4.1207Y-2.1522
X4.1398Y-2.1063
X5.624Y-4.252
X5.643Y-4.206
X5.643Y-4.2979
X5.689Y-4.187
X5.689Y-4.3169
X5.7349Y-4.206
X5.7349Y-4.2979
X5.7539Y-4.252
X5.624Y-2.1063
X5.643Y-2.0604
X5.643Y-2.1522
X5.689Y-2.0413
X5.689Y-2.1713
X5.7349Y-2.0604
X5.7349Y-2.1522
X5.7539Y-2.1063
T3
X4.0748Y-3.3465
X4.0748Y-3.5433
X5.689Y-3.3465
X5.689Y-3.5433
T4
X5.689Y-2.3386
X5.689Y-2.4386
X5.689Y-2.5386
X5.689Y-2.6386
T5
X4.4685Y-2.1654
X4.4685Y-2.3425
X4.7244Y-2.1654
X4.7244Y-2.3425
X5.0394Y-2.1654
X5.0394Y-2.3425
X5.2953Y-2.1654
X5.2953Y-2.3425
T6
X5.1181Y-4.2126
X5.315Y-4.2126
T7
X4.0748Y-4.252
X4.0748Y-2.1063
X5.689Y-4.252
X5.689Y-2.1063
T8
X4.4606Y-4.1929
X4.6339Y-4.1929
T0
M30
